<svg width="1251" height="462" xmlns="http://www.w3.org/2000/svg"><g fill="none" fill-rule="evenodd"><path d="m1074.994 241.97-8.533 7.418c-1.177 1.023-1.099 3.045.173 4.508l15.069 17.335c1.272 1.463 3.263 1.82 4.44.798l8.532-7.417c1.177-1.023 1.099-3.045-.173-4.508l-15.069-17.335c-1.272-1.463-3.263-1.82-4.44-.798Zm19.102 19.459c.456.524.475 1.255.042 1.631l-9.403 8.174c-.432.376-1.154.255-1.61-.268l-16.185-18.62c-.455-.523-.474-1.255-.042-1.63l1.396-1.214.675.446c.443.294.968.294 1.305.002l4.8-4.173c.336-.292.409-.812.18-1.292l-.348-.73 1.396-1.214c.432-.375 1.154-.255 1.61.27l16.184 18.618Z" fill="#A1B0C1" fill-rule="nonzero"/><g fill="#A1B0C1" fill-rule="nonzero"><path d="M914.98 120.363c-.944-1.884-2.578-3.273-4.604-3.929-3.888-1.245-8.175.805-9.561 4.576a7.5 7.5 0 0 0 .013 5.197c.897 2.43.91 5.088.034 7.491 0 0-.565 1.043.233 1.334l5.022 1.828c.817.297 1.035-.872 1.035-.872.855-2.35 2.58-4.355 4.99-5.8a7.453 7.453 0 0 0 3.194-3.865 7.467 7.467 0 0 0-.357-5.96Zm-3.549 8.685c-2.621 1.57-4.515 3.759-5.494 6.334l-3.754-1.366a12.228 12.228 0 0 0-.09-8.251 6.206 6.206 0 0 1-.007-4.285c1.147-3.112 4.683-4.805 7.892-3.78 1.673.542 3.022 1.691 3.796 3.242a6.16 6.16 0 0 1 .295 4.92 6.144 6.144 0 0 1-2.638 3.186ZM919.628 116.865a.674.674 0 0 0-.893-.326l-2.1.962a.653.653 0 0 0-.32.882.68.68 0 0 0 .893.326l2.1-.962a.653.653 0 0 0 .32-.882ZM905.875 137.295l-4.874-1.774c-.34-.124-.686-.013-.778.24-.094.258.107.562.441.684l4.875 1.774c.34.124.685.013.777-.24.093-.253-.107-.562-.44-.684ZM904.202 138.78l-3.343-1.217c-.375-.137-.748-.036-.84.217-.094.258.136.573.504.707l3.343 1.217c.374.136.748.036.84-.218.092-.253-.136-.572-.504-.707ZM911.277 114.14c.262.095.567-.098.685-.423l.746-2.048c.12-.331.004-.67-.253-.764-.257-.094-.566.097-.685.422l-.745 2.049c-.12.33-.009.668.252.764ZM904.69 114.155a.653.653 0 0 0 .321-.883l-.99-2.088a.675.675 0 0 0-.895-.325.66.66 0 0 0-.321.882l.99 2.088a.687.687 0 0 0 .895.326ZM919.534 126.042l-2.077-.756c-.336-.122-.678-.01-.77.243-.092.253.103.561.433.681l2.078.756c.335.122.678.01.77-.243.092-.253-.104-.56-.434-.681ZM899.38 118.706l-2.078-.756c-.336-.122-.678-.01-.77.243-.093.253.103.561.433.681l2.078.756c.335.123.678.01.77-.243.092-.253-.098-.559-.434-.68Z"/></g><g fill="#A1B0C1" fill-rule="nonzero"><path d="M823.492 53.954a.772.772 0 0 1 .442-.994l2.024-.782a.763.763 0 0 1 .989.44.772.772 0 0 1-.443.993l-2.024.783a.763.763 0 0 1-.988-.44ZM830.248 38.78a.772.772 0 0 1 .442-.994l2.024-.782a.763.763 0 0 1 .989.44.772.772 0 0 1-.443.993l-2.024.783a.763.763 0 0 1-.988-.44ZM822.756 49.586a.772.772 0 0 1 .442-.994l2.024-.782a.763.763 0 0 1 .989.44.772.772 0 0 1-.443.993l-2.024.783a.763.763 0 0 1-.988-.44ZM826.009 42.28a.772.772 0 0 1 .442-.994l2.024-.782a.763.763 0 0 1 .989.44.772.772 0 0 1-.443.993l-2.024.783a.763.763 0 0 1-.988-.44ZM826.995 46.086a.772.772 0 0 1 .442-.994l2.024-.782a.763.763 0 0 1 .989.44.772.772 0 0 1-.443.993l-2.023.783a.763.763 0 0 1-.99-.44Z"/><path d="M833.518 68.765a2.155 2.155 0 0 1-1.078-2.847l.293-.659-2.103-.936-.106.05c-.576.256-1.22 1.039-1.487 1.618a.718.718 0 0 1-.95.356.718.718 0 0 1-.352-.945l.004-.009a5.545 5.545 0 0 1 1.337-1.762l-1.71-.761c-.683.657-1.738.826-2.595.307-5.84-3.532-8.13-10.947-5.324-17.249l2.698-6.059c2.806-6.301 9.848-9.562 16.38-7.585.956.29 1.54 1.184 1.508 2.134l1.682.749c-.003-.785.186-1.603.451-2.177a.718.718 0 0 1 .95-.356.718.718 0 0 1 .347.954c-.27.585-.434 1.608-.23 2.233l.008.026 2.16.961.293-.659a2.152 2.152 0 0 1 2.837-1.104 2.152 2.152 0 0 1 1.196 2.511c.47.026.916.21 1.27.54 2.021 1.877 2.619 4.847 1.487 7.39l-8.563 19.23c-1.132 2.543-3.738 4.086-6.487 3.84a2.013 2.013 0 0 1-1.25-.582 2.149 2.149 0 0 1-2.666.791Zm4.586-35.102c-5.844-1.769-12.143 1.149-14.654 6.787l-2.698 6.06c-2.51 5.638-.463 12.272 4.762 15.432.356.215.817.064 1.005-.292a.427.427 0 0 0 .023-.046l12-26.952c.172-.388-.021-.863-.438-.989Zm-6.785 26.33c-.663-2.03.203-3.975 2.155-4.84 1.274-.565 1.797-1.739 1.364-3.064-.663-2.03.202-3.974 2.154-4.839 1.275-.565 1.798-1.739 1.365-3.064-.664-2.03.202-3.974 2.154-4.84 1.081-.478 1.623-1.386 1.496-2.47l-2.413-1.075L828.1 61.618l2.45 1.091c.838-.634 1.126-1.626.77-2.717Zm.646 3.346 1.355.603 11.494-25.817-1.374-.612c-.036.41-.138.804-.3 1.169-.379.85-1.086 1.55-2.06 1.982-1.274.565-1.797 1.739-1.364 3.064.663 2.03-.203 3.974-2.155 4.84-1.274.564-1.797 1.738-1.364 3.063.664 2.03-.202 3.974-2.154 4.84-1.275.564-1.797 1.738-1.364 3.063.461 1.413.178 2.803-.714 3.805Zm5.606 3.784a5.043 5.043 0 0 0 5.045-2.987l8.563-19.232a5.042 5.042 0 0 0-1.156-5.748c-.34-.314-.91-.15-1.102.282l-11.878 26.678c-.193.434.07.965.528 1.007Zm-2.52-.043 13.253-29.768a.718.718 0 0 0-.36-.95.718.718 0 0 0-.945.368L833.745 66.5a.718.718 0 0 0 .36.95c.36.16.783-.005.945-.369Z"/></g><g transform="rotate(130 326.18 164.314)" stroke="#A1B0C1"><path d="M0 27.042h19.354c.51 0 .536.583 1.046.583 1.5 0 2.93.034 4.857 0 .355-.007.732-.574 1.156-.583 2.481-.056 8.974-.056 19.477 0A2.958 2.958 0 0 1 42.932 30H2.958A2.958 2.958 0 0 1 0 27.042Z"/><rect stroke-width="2" x="1.998" y="1" width="41.895" height="24" rx="2"/></g><g transform="scale(-1 1) rotate(17 -1821.371 -3903.64)" stroke="#A1B0C1"><path d="M0 27.042h19.354c.51 0 .536.583 1.046.583 1.5 0 2.93.034 4.857 0 .355-.007.732-.574 1.156-.583 2.481-.056 8.974-.056 19.477 0A2.958 2.958 0 0 1 42.932 30H2.958A2.958 2.958 0 0 1 0 27.042Z"/><rect stroke-width="2" x="1.998" y="1" width="41.895" height="24" rx="2"/></g><g fill="#A1B0C1" fill-rule="nonzero"><path d="m333.605 129.376-14.032-13.085c-.83-.773-2.151-.707-2.947.146l-.962 1.031c-3.432 3.681-4.57 8.862-2.97 13.52a.677.677 0 0 0 .883.408.716.716 0 0 0 .433-.897c-1.432-4.167-.415-8.802 2.656-12.096l.962-1.032a.696.696 0 0 1 .983-.048l14.032 13.085a.696.696 0 0 1 .02.983l-.962 1.032c-3.072 3.294-7.625 4.632-11.882 3.492a.716.716 0 0 0-.864.494.684.684 0 0 0 .186.695.66.66 0 0 0 .283.157c4.758 1.273 9.846-.222 13.28-3.904l.961-1.031c.796-.853.769-2.177-.06-2.95Z"/><path d="M328.182 144.07c.12-.284.067-.592-.135-.78l-21.966-20.484c-.202-.188-.512-.22-.788-.08a.852.852 0 0 0-.469.719l-.068 2.317c-.038 1.366.454 2.596 1.387 3.467l15.49 14.445c.934.87 2.197 1.276 3.558 1.143l2.306-.229a.852.852 0 0 0 .685-.518Zm-2.95-.714c-.97.096-1.874-.195-2.54-.816l-15.49-14.446c-.667-.62-1.02-1.501-.992-2.476l.016-.554 19.557 18.237-.55.055ZM335.748 136.309c-.536-2.146-3.595-3.212-3.941-3.328a.698.698 0 0 0-.878.441.686.686 0 0 0 .433.875c.693.23 2.742 1.155 3.042 2.36.136.543-.099 1.132-.717 1.794-1.897 2.035-7.111-.528-8.964-1.69l-.423-.261a.694.694 0 0 0-.734 1.177l.419.26c.311.195 7.643 4.742 10.71 1.454.953-1.023 1.306-2.06 1.053-3.082ZM334.58 122.044c1.726-.342 3.249-1.975 3.47-3.72.047-.371-.208-.678-.576-.686a.755.755 0 0 0-.745.654c-.14 1.105-1.18 2.22-2.275 2.438-1.726.341-3.25 1.975-3.47 3.72a.608.608 0 0 0 .182.53c.101.095.238.154.394.157.366.009.7-.285.745-.655.139-1.105 1.18-2.221 2.276-2.438ZM331.617 119.28c1.726-.341 3.25-1.975 3.47-3.72a.59.59 0 0 0-.576-.687.755.755 0 0 0-.746.655c-.138 1.105-1.18 2.221-2.275 2.438-1.725.342-3.249 1.976-3.47 3.72a.608.608 0 0 0 .182.53c.101.095.237.153.394.157a.755.755 0 0 0 .745-.655c.14-1.104 1.18-2.22 2.276-2.438ZM328.653 116.518c1.726-.342 3.25-1.976 3.47-3.72.048-.37-.208-.679-.575-.687a.756.756 0 0 0-.745.654c-.14 1.104-1.18 2.22-2.275 2.438-1.726.341-3.25 1.975-3.47 3.72a.608.608 0 0 0 .182.531c.1.094.238.153.393.157.365.009.7-.284.745-.654.14-1.107 1.18-2.222 2.275-2.439Z"/></g><g fill="#A1B0C1" fill-rule="nonzero"><path d="M207.918 185.14a.772.772 0 0 0-1.06.244l-1.154 1.838a.763.763 0 0 0 .244 1.054.772.772 0 0 0 1.06-.244l1.154-1.838a.763.763 0 0 0-.244-1.054ZM191.734 188.876a.772.772 0 0 0-1.06.245l-1.154 1.837a.763.763 0 0 0 .243 1.055.772.772 0 0 0 1.06-.245l1.154-1.837a.763.763 0 0 0-.243-1.055ZM203.77 183.584a.772.772 0 0 0-1.059.244l-1.154 1.838a.763.763 0 0 0 .243 1.054.772.772 0 0 0 1.06-.244l1.154-1.838a.763.763 0 0 0-.243-1.054ZM195.978 185.383a.772.772 0 0 0-1.06.245l-1.154 1.837a.763.763 0 0 0 .244 1.054.772.772 0 0 0 1.06-.244l1.154-1.838a.763.763 0 0 0-.244-1.054ZM199.526 187.077a.772.772 0 0 0-1.06.245l-1.154 1.837a.763.763 0 0 0 .244 1.055.772.772 0 0 0 1.06-.245l1.154-1.837a.763.763 0 0 0-.244-1.055Z"/><path d="M220.544 197.808a2.155 2.155 0 0 0-2.589-1.601l-.702.162-.518-2.243c.023-.032.047-.062.07-.095.36-.517 1.252-1 1.871-1.151a.718.718 0 0 0 .531-.865.718.718 0 0 0-.86-.525l-.01.002a5.545 5.545 0 0 0-1.985.976l-.421-1.824c.775-.544 1.142-1.548.797-2.489-2.352-6.407-9.195-10.068-15.916-8.517l-6.462 1.492c-6.722 1.552-11.266 7.843-10.572 14.632.101.994.868 1.738 1.807 1.888l.414 1.793c-.77-.152-1.608-.123-2.223.028a.718.718 0 0 0-.53.865.718.718 0 0 0 .87.523c.626-.155 1.661-.12 2.236.2l.023.012.532 2.304-.702.162a2.152 2.152 0 0 0-1.626 2.574 2.152 2.152 0 0 0 2.237 1.653c-.065.467.032.94.287 1.35 1.458 2.342 4.259 3.495 6.97 2.87l20.512-4.736c2.712-.626 4.724-2.89 5.008-5.636.049-.48-.071-.946-.334-1.338a2.149 2.149 0 0 0 1.285-2.466Zm-35.332-2.196c-.621-6.074 3.445-11.701 9.459-13.09l6.462-1.492c6.014-1.388 12.136 1.887 14.24 7.62.144.39-.092.813-.477.93a.427.427 0 0 1-.05.014L186.1 196.23c-.414.096-.844-.185-.888-.618Zm27.14-1.636c-1.865-1.039-3.94-.56-5.161 1.191-.798 1.144-2.05 1.433-3.268.755-1.866-1.039-3.94-.56-5.161 1.191-.798 1.144-2.05 1.433-3.268.755-1.866-1.038-3.94-.56-5.162 1.192-.676.97-1.67 1.328-2.711.996l-.595-2.573 27.536-6.358.604 2.614c-.782.701-1.811.795-2.814.237Zm3.162 1.273.334 1.444-27.536 6.357-.338-1.465c.41.042.814.018 1.204-.072.906-.21 1.73-.77 2.339-1.644.797-1.143 2.05-1.432 3.268-.754 1.865 1.038 3.94.56 5.16-1.192.799-1.143 2.05-1.432 3.269-.754 1.866 1.038 3.94.56 5.161-1.192.798-1.143 2.05-1.432 3.268-.754 1.299.723 2.717.71 3.871.026Zm2.645 6.224a5.043 5.043 0 0 1-3.895 4.383l-20.512 4.735a5.042 5.042 0 0 1-5.422-2.231c-.244-.393.026-.921.487-1.028l28.454-6.569c.463-.107.935.252.888.71Zm.439-2.482-31.75 7.33a.718.718 0 0 1-.864-.534.718.718 0 0 1 .542-.858l31.75-7.33c.388-.09.775.15.864.534a.718.718 0 0 1-.542.858Z"/></g><g transform="scale(-1 1) rotate(-41 60.234 213.096)" stroke="#C6CFD9"><rect stroke-width="2" x="26.515" y="1" width="4.682" height="28" rx="2.341"/><rect stroke-width="2" x="32.444" y="4.061" width="3.467" height="21.878" rx="1.734"/><rect stroke-width="2" x="5.714" y="1" width="4.682" height="28" rx="2.341"/><rect stroke-width="2" x="1" y="4.061" width="3.467" height="21.878" rx="1.734"/><path stroke-width="3" d="M11.682 14.969h13.402v1H11.682z"/></g><g fill="#A1B0C1" fill-rule="nonzero"><path d="m69.102 294.142-3.497 1.137-.65-1.998a1.28 1.28 0 0 0-.415-.6c.2-.594.204-1.23.015-1.82-.545-1.6-2.324-2.443-3.973-1.883a3.238 3.238 0 0 0-1.071.612c-1.45-.957-3.412-.75-4.657.491-1.538-1.243-3.84-1.017-5.141.506a3.543 3.543 0 0 0-.817 2.885c-1.735-.055-3.213 1.273-3.301 2.967-.018.35.025.7.128 1.035l1.917 5.898c.347 1.037 1.427 1.653 2.534 1.446l3.924 12.075c.338 1.52 1.88 2.462 3.444 2.105.174-.04.345-.095.51-.165L68.8 315.34c1.564-.357 2.557-1.879 2.219-3.399a2.738 2.738 0 0 0-.16-.494l-.107-.326 3.498-1.136c2.184-.71 2.978-2.716 2.118-5.36l-2.4-7.39c-.883-2.651-2.7-3.796-4.866-3.093Zm-.236 19.848a1.682 1.682 0 0 1-.457.149l-10.748 3.492c-.807.398-1.78.087-2.173-.693-.07-.14-.119-.289-.144-.443l-3.986-12.268c.643-.58.891-1.465.639-2.27l-.452-1.39a3.351 3.351 0 0 0 2.83-1.52c1.518 1.266 3.823 1.073 5.147-.432a3.53 3.53 0 0 0 .748-3.365l-.087-.265-.06-.188 3.522-1.144a.052.052 0 0 1 .066.032l5.904 18.173c.393.78.058 1.735-.749 2.132Zm-5.613-21.545-4.17 1.355a.645.645 0 0 0-.426.806.621.621 0 0 0 .039.12l.02.061c.074.172.131.35.172.532l.112.344c.363 1.201-.346 2.48-1.584 2.856-1.052.32-2.177-.114-2.705-1.042a.646.646 0 0 0-1.205.231c-.147.994-1.09 1.699-2.106 1.573a1.869 1.869 0 0 1-.542-.152.669.669 0 0 0-.873.307.625.625 0 0 0-.036.476l.797 2.451c.162.5-.124 1.041-.64 1.209-.515.167-1.065-.102-1.227-.602l-1.917-5.899c-.277-.953.295-1.958 1.276-2.245.482-.14.997-.086 1.43.151.303.184.706.09.9-.21a.622.622 0 0 0-.04-.737 2.086 2.086 0 0 1-.295-.572c-.399-1.19.273-2.487 1.5-2.898.981-.328 2.056.007 2.643.825a.66.66 0 0 0 1.082-.058c.697-1.072 2.142-1.405 3.228-.744.154.094.296.205.423.332a.664.664 0 0 0 .991-.082c.232-.309.557-.54.928-.662.953-.32 1.98.167 2.294 1.09.121.388.097.808-.07 1.184Zm11.86 12.594c.367 1.129.688 3.113-1.266 3.748l-3.485 1.133-.7-2.156 1.593-.517c1.338-.435 1.852-1.69 1.338-3.272l-1.3-4.003c-.514-1.582-1.668-2.295-3.006-1.86l-1.594.518-.696-2.144 3.498-1.136c1.954-.635 2.863 1.166 3.227 2.289l2.391 7.4Zm-5.842 1.524-2.177-6.722 1.593-.517c.623-.203 1.077.157 1.369 1.057l1.3 4.003c.293.9.13 1.46-.485 1.66l-1.6.519Z"/><path d="M53.89 303.042c-.288.094-.44.425-.337.74l3.045 9.371c.102.315.42.494.708.4.289-.093.44-.425.337-.74l-3.044-9.37c-.103-.316-.42-.495-.708-.401ZM57.027 302.023c-.288.093-.44.425-.337.74l3.045 9.37c.102.316.42.495.708.401.288-.094.44-.425.337-.74l-3.045-9.37c-.102-.316-.419-.495-.708-.401ZM59.641 301.173c-.288.094-.44.426-.337.74l3.045 9.371c.102.315.419.495.708.401.288-.094.44-.425.337-.74l-3.045-9.371c-.102-.315-.419-.495-.708-.4ZM62.778 300.154c-.289.094-.44.425-.337.74l3.044 9.371c.103.315.42.495.709.4.288-.093.44-.424.337-.74l-3.045-9.37c-.102-.315-.42-.495-.708-.4Z"/></g><g fill="#90A1B5" fill-rule="nonzero"><path d="m431.453 81.318-2.344-.717.41-1.34a.853.853 0 0 0 .002-.485c.335-.249.581-.594.703-.989.315-1.082-.334-2.222-1.45-2.547a2.159 2.159 0 0 0-.818-.076c-.426-1.077-1.576-1.714-2.731-1.512-.364-1.267-1.708-2.024-3-1.69a2.362 2.362 0 0 0-1.55 1.264c-.926-.694-2.241-.534-2.937.357a1.986 1.986 0 0 0-.326.614l-1.209 3.955c-.207.698.147 1.448.831 1.758l-2.475 8.095c-.396.96.086 2.063 1.077 2.466.11.045.224.08.34.105l7.206 2.202c.99.403 2.115-.048 2.512-1.007.044-.107.078-.218.1-.331l.068-.219 2.344.717c1.465.448 2.665-.345 3.207-2.117l1.515-4.954c.532-1.785-.023-3.105-1.475-3.549Zm-7.718 10.749a1.121 1.121 0 0 1-.307-.094l-7.205-2.203c-.592-.091-1.005-.633-.921-1.209.015-.103.045-.203.09-.297l2.515-8.224a1.454 1.454 0 0 0 1.217-.996l.284-.93c.621.44 1.428.536 2.127.251.345 1.272 1.678 2.047 2.976 1.732a2.353 2.353 0 0 0 1.695-1.551l.054-.179.039-.125 2.361.722a.034.034 0 0 1 .024.043l-3.725 12.182c-.083.576-.632.97-1.224.878Zm5.173-13.912-2.796-.855a.43.43 0 0 0-.54.277.414.414 0 0 0-.025.081l-.013.04a1.985 1.985 0 0 1-.109.357l-.07.23c-.261.795-1.137 1.223-1.957.955-.697-.228-1.146-.895-1.08-1.604a.43.43 0 0 0-.745-.334c-.46.486-1.245.51-1.752.053a1.246 1.246 0 0 1-.238-.29.446.446 0 0 0-.594-.167.417.417 0 0 0-.201.247l-.503 1.643a.645.645 0 0 1-.811.416.645.645 0 0 1-.44-.799l1.208-3.954c.214-.626.91-.956 1.556-.738.316.108.577.334.722.63.096.216.352.319.573.229a.415.415 0 0 0 .26-.418 1.39 1.39 0 0 1 .057-.425c.238-.802 1.1-1.254 1.927-1.01.662.197 1.12.79 1.129 1.462a.44.44 0 0 0 .613.382 1.595 1.595 0 0 1 2.047.828c.048.11.083.226.104.343a.443.443 0 0 0 .573.335c.244-.08.51-.083.76-.007.642.19 1.016.848.835 1.473a1.124 1.124 0 0 1-.49.62Zm1.661 11.412c-.231.757-.815 1.964-2.125 1.563l-2.336-.714.442-1.445 1.068.326c.897.275 1.657-.214 1.982-1.274l.82-2.684c.324-1.06-.033-1.89-.93-2.165l-1.068-.327.44-1.436 2.344.717c1.31.4 1.117 1.73.887 2.484l-1.524 4.955Zm-3.773-1.401 1.381-4.504 1.068.327c.418.127.528.497.344 1.1l-.82 2.684c-.185.603-.488.847-.9.72l-1.073-.327Z"/><path d="M419.743 80.361c-.194-.059-.403.064-.467.276l-1.92 6.281c-.065.211.04.43.233.49.193.059.402-.064.467-.275l1.92-6.282c.065-.211-.04-.43-.233-.49ZM421.846 81.004c-.194-.059-.403.064-.468.275l-1.92 6.282c-.065.211.04.43.233.49.194.059.403-.064.468-.276l1.92-6.281c.065-.211-.04-.43-.233-.49ZM423.598 81.54c-.194-.06-.403.064-.467.275l-1.92 6.282c-.065.211.04.43.233.49.193.059.402-.065.467-.276l1.92-6.282c.065-.21-.04-.43-.233-.49ZM425.7 82.183c-.193-.06-.402.064-.467.275l-1.92 6.282c-.065.21.04.43.233.49.194.058.403-.065.468-.276l1.92-6.282c.065-.21-.04-.43-.233-.49Z"/></g><g fill="#90A1B5" fill-rule="nonzero"><path d="M979.939 156.08a.515.515 0 0 0-.571.447l-.18 1.435a.509.509 0 0 0 .444.569.514.514 0 0 0 .571-.447l.18-1.435a.509.509 0 0 0-.444-.569ZM971.213 162.898a.515.515 0 0 0-.571.446l-.18 1.436a.509.509 0 0 0 .444.568.514.514 0 0 0 .571-.446l.18-1.436a.509.509 0 0 0-.444-.568ZM976.995 156.309a.515.515 0 0 0-.572.446l-.18 1.435a.509.509 0 0 0 .445.57.514.514 0 0 0 .571-.447l.18-1.436a.509.509 0 0 0-.444-.568ZM972.793 159.591a.515.515 0 0 0-.571.447l-.18 1.435a.509.509 0 0 0 .444.569.514.514 0 0 0 .572-.447l.18-1.435a.509.509 0 0 0-.445-.569ZM975.414 159.615a.515.515 0 0 0-.571.447l-.18 1.435a.509.509 0 0 0 .444.569.514.514 0 0 0 .572-.447l.18-1.435a.509.509 0 0 0-.445-.569Z"/><path d="M991.137 160.177a1.437 1.437 0 0 0-2.016-.238l-.378.296-.945-1.21.015-.076c.073-.414.475-.957.807-1.223a.478.478 0 0 0 .077-.672.479.479 0 0 0-.673-.071c-.322.258-.687.68-.925 1.149l-.768-.984a1.425 1.425 0 0 0-.22-1.728c-3.226-3.208-8.392-3.493-12.016-.661l-3.484 2.722c-3.624 2.831-4.597 7.912-2.265 11.819a1.425 1.425 0 0 0 1.624.631l.755.967a3.63 3.63 0 0 0-1.335.643.478.478 0 0 0-.077.672.479.479 0 0 0 .673.07c.335-.269.97-.54 1.408-.508h.017l.97 1.243-.378.296a1.435 1.435 0 0 0-.257 2.013c.436.558 1.21.7 1.817.368.093.301.284.559.554.735a4.322 4.322 0 0 0 5.02-.23l11.059-8.64a4.322 4.322 0 0 0 1.438-4.816 1.342 1.342 0 0 0-.58-.714c.462-.499.528-1.284.083-1.853Zm-21.967 8.628c-2.086-3.495-1.215-8.04 2.027-10.574l3.485-2.722c3.242-2.533 7.864-2.28 10.75.591a.482.482 0 0 1-.026.697l-.007.006a.285.285 0 0 1-.02.016l-15.498 12.11a.484.484 0 0 1-.71-.124Zm15.938-8.635c-1.42-.102-2.538.772-2.783 2.174-.16.915-.835 1.443-1.762 1.376-1.42-.101-2.538.772-2.783 2.175-.16.915-.835 1.443-1.762 1.376-1.42-.101-2.538.772-2.783 2.174-.135.777-.635 1.274-1.357 1.367l-1.084-1.388 14.846-11.6 1.1 1.41c-.274.644-.87.99-1.632.936Zm2.269-.122.608.779-14.846 11.599-.617-.79c.26-.09.497-.219.707-.383.489-.382.828-.952.95-1.652.16-.915.835-1.443 1.762-1.377 1.42.102 2.538-.771 2.783-2.174.16-.915.835-1.443 1.762-1.376 1.42.102 2.538-.772 2.782-2.174.16-.916.835-1.443 1.762-1.377.989.07 1.842-.337 2.347-1.075Zm3.351 3.016a3.362 3.362 0 0 1-1.118 3.745l-11.06 8.64a3.361 3.361 0 0 1-3.904.18c-.258-.169-.244-.564.004-.758l15.342-11.986c.25-.195.636-.111.736.179Zm-.434-1.624-17.119 13.375a.479.479 0 0 1-.671-.08.479.479 0 0 1 .085-.67l17.119-13.375a.479.479 0 0 1 .672.079.479.479 0 0 1-.086.671Z"/></g><g transform="rotate(21 -1031.402 234.61)" stroke="#90A1B5"><path d="M0 17.446h12.515c.33 0 .346.376.676.376.97 0 1.895.022 3.141 0 .23-.004.473-.37.747-.376 1.605-.036 5.803-.036 12.595 0a1.909 1.909 0 0 1-1.909 1.909H1.91A1.909 1.909 0 0 1 0 17.446Z"/><rect x="1.145" y=".5" width="27.383" height="15.774" rx="2"/></g><g fill="#90A1B5" fill-rule="nonzero"><path d="M175.56 441.602a5.177 5.177 0 0 1 .874-3.938c1.57-2.223 4.675-2.852 6.926-1.4a5 5 0 0 1 2.078 2.772 7.264 7.264 0 0 0 2.988 4.003s.72.328.41.803l-1.94 2.988c-.315.486-.9-.049-.9-.049-1.399-.908-3.121-1.284-4.984-1.086a4.968 4.968 0 0 1-3.252-.776 4.978 4.978 0 0 1-2.2-3.317Zm5.373 3.201c2.026-.216 3.912.19 5.466 1.168l1.451-2.234a8.152 8.152 0 0 1-3.263-4.429 4.137 4.137 0 0 0-1.715-2.284c-1.86-1.197-4.42-.68-5.718 1.154a4.266 4.266 0 0 0-.72 3.25 4.107 4.107 0 0 0 1.816 2.736 4.096 4.096 0 0 0 2.683.639ZM171.68 441.605a.45.45 0 0 1 .346-.532l1.503-.33c.243-.053.479.1.525.34a.453.453 0 0 1-.345.533l-1.504.33a.435.435 0 0 1-.525-.341ZM187.2 446.965l1.883-2.9c.132-.203.36-.283.51-.185.154.1.17.343.04.541l-1.883 2.9c-.132.203-.36.283-.51.185-.151-.098-.17-.343-.04-.541ZM188.686 447.084l1.292-1.99c.145-.222.384-.318.534-.22.154.099.158.359.016.578l-1.292 1.989c-.145.223-.384.32-.535.221-.15-.098-.157-.36-.015-.578ZM175.033 436.804c-.1.155-.34.175-.534.05l-1.219-.792c-.196-.128-.27-.356-.171-.508.099-.153.34-.176.534-.05l1.218.791c.197.128.273.353.172.509ZM178.547 434.169a.436.436 0 0 1-.526-.341l-.31-1.51a.45.45 0 0 1 .346-.532c.24-.05.479.1.525.341l.31 1.51a.458.458 0 0 1-.345.532ZM175.413 446.453l.802-1.236c.13-.2.357-.277.508-.18.15.099.17.341.042.537l-.802 1.237c-.13.2-.357.277-.508.18-.15-.099-.17-.341-.042-.538ZM183.2 434.461l.803-1.236c.13-.2.357-.277.508-.18.15.099.17.341.042.537l-.803 1.236c-.13.2-.356.278-.507.18-.15-.098-.172-.337-.043-.537Z"/></g><g transform="scale(1 -1) rotate(50 718.232 1192.435)" stroke="#E7ECF3"><rect x="16.999" y=".5" width="3.321" height="18.399" rx="1.661"/><rect x="20.833" y="2.479" width="2.535" height="14.44" rx="1.268"/><rect x="3.548" y=".5" width="3.321" height="18.399" rx="1.661"/><rect x=".5" y="2.479" width="2.535" height="14.44" rx="1.268"/><path stroke-width="3" d="M8.084 10.21h7.606v1H8.084z"/></g><g fill="#90A1B5" fill-rule="nonzero"><path d="m9.588 147.074 10.848-6.779c.64-.4 1.497-.189 1.91.47l.498.798c1.778 2.845 1.863 6.38.223 9.225a.451.451 0 0 1-.63.155.478.478 0 0 1-.169-.642c1.468-2.545 1.392-5.707-.2-8.254l-.498-.797a.464.464 0 0 0-.636-.157l-10.848 6.778a.464.464 0 0 0-.138.641l.499.797c1.59 2.547 4.4 4.002 7.33 3.797a.478.478 0 0 1 .503.433.456.456 0 0 1-.21.432.44.44 0 0 1-.205.066c-3.276.228-6.415-1.397-8.193-4.243l-.499-.798c-.412-.66-.226-1.522.415-1.922Z"/><path d="M11.268 157.38c-.042-.202.031-.397.187-.494l16.981-10.611c.156-.098.363-.078.526.048a.568.568 0 0 1 .215.53l-.25 1.525c-.149.899-.627 1.641-1.349 2.092l-11.974 7.483c-.722.45-1.6.556-2.474.296l-1.48-.444a.568.568 0 0 1-.382-.426Zm2.021-.093c.623.186 1.251.111 1.766-.21l11.975-7.484c.515-.321.858-.853.964-1.494l.06-.365-15.119 9.447.354.106ZM7.304 151.338c.624-1.336 2.76-1.645 3.002-1.676a.466.466 0 0 1 .519.4.457.457 0 0 1-.395.517c-.483.063-1.941.407-2.291 1.158-.158.338-.08.753.24 1.265.983 1.573 4.722.559 6.082.034l.31-.117a.463.463 0 0 1 .331.864l-.307.116c-.229.088-5.605 2.132-7.194-.41-.494-.79-.593-1.514-.297-2.151ZM9.882 142.151c-1.085-.443-1.874-1.706-1.797-2.876a.393.393 0 0 1 .464-.376c.24.041.421.275.405.523-.05.741.49 1.604 1.178 1.885 1.086.443 1.876 1.706 1.797 2.876a.406.406 0 0 1-.186.324.394.394 0 0 1-.278.052.503.503 0 0 1-.404-.523c.05-.74-.49-1.604-1.179-1.885ZM12.173 140.72c-1.086-.443-1.875-1.706-1.797-2.877a.393.393 0 0 1 .464-.376c.24.041.422.275.405.523-.05.741.489 1.604 1.179 1.885 1.085.444 1.874 1.707 1.797 2.877a.406.406 0 0 1-.187.324.396.396 0 0 1-.277.052.503.503 0 0 1-.405-.524c.05-.74-.49-1.603-1.179-1.885ZM14.464 139.289c-1.085-.443-1.875-1.707-1.797-2.876a.393.393 0 0 1 .464-.377c.239.04.42.275.404.523-.05.74.49 1.604 1.179 1.885 1.086.443 1.875 1.706 1.797 2.876a.406.406 0 0 1-.186.324.398.398 0 0 1-.278.053.503.503 0 0 1-.404-.523c.05-.742-.49-1.604-1.179-1.885Z"/></g><path d="m1247.309 60.74-7.903-1.11c-1.09-.154-2.137.867-2.335 2.275l-2.344 16.68c-.198 1.407.527 2.677 1.617 2.83l7.903 1.111c1.09.153 2.137-.868 2.335-2.275l2.344-16.68c.198-1.408-.528-2.678-1.617-2.83Zm-1.624 19.928c-.07.504-.454.868-.854.812l-8.71-1.224c-.4-.056-.668-.512-.597-1.016l2.518-17.916c.07-.504.454-.868.854-.812l1.293.182.072.587c.047.386.288.676.6.72l4.446.624c.311.044.623-.168.775-.526l.23-.544 1.294.182c.4.056.668.512.597 1.016l-2.518 17.915Z" fill="#90A1B5" fill-rule="nonzero"/><g fill="#90A1B5" fill-rule="nonzero"><path d="M644.94 130.616c5.583-4.853 14.095-4.313 18.927 1.245l3.445 5.886c.853.98 1.424 1.334.439 2.19l-.774.673-5.155-5.93.774-.672c.21-.183.446-.313.69-.409l-.61-.702c-4.264-4.905-11.779-5.377-16.705-1.095-4.926 4.282-5.505 11.79-1.24 16.695l.61.702c.129-.229.29-.444.5-.627l.747-.649 5.155 5.93-.643.559c-.985.856-1.266.25-2.119-.73l-5.442-4.15c-4.832-5.558-4.182-14.063 1.401-18.916Z"/><path d="m659.277 135.379.215-.187c.624-.543 1.59-.451 2.16.204l5.155 5.93c.57.655.525 1.625-.098 2.167l-.565.491c-.312.271-.795.226-1.08-.102l-6.186-7.116c-.285-.327.087-1.116.399-1.387ZM647.446 145.663l.564-.49c.312-.272.796-.226 1.08.102l6.186 7.115c.285.328.263.813-.05 1.084l-.564.491c-.623.542-1.59.45-2.16-.204l-5.155-5.93c-.57-.655-.525-1.625.099-2.168Z"/></g><g fill="#E7ECF3" fill-rule="nonzero"><path d="M1223.47 169.607c-12.014-10.081-29.979-8.695-39.942 3.178l-7.017 12.522c-1.758 2.095-2.949 2.858-.829 4.637l1.666 1.398 10.628-12.667-1.665-1.397a5.013 5.013 0 0 0-1.478-.842l1.259-1.5c8.79-10.477 24.651-11.691 35.253-2.796 10.601 8.896 12.16 24.727 3.368 35.203l-1.258 1.5a5.013 5.013 0 0 0-1.086-1.309l-1.608-1.349-10.628 12.666 1.383 1.16c2.12 1.78 2.687.494 4.445-1.602l11.316-8.915c9.962-11.873 8.208-29.805-3.807-39.887Z"/><path d="m1194.274 180.161-.47-.395c-1.365-1.144-3.422-.938-4.596.461l-10.628 12.666c-1.174 1.4-1.02 3.461.344 4.606l1.235 1.036c.682.572 1.71.469 2.297-.23l12.754-15.2c.587-.7-.254-2.372-.936-2.944ZM1218.617 200.588l-1.235-1.037c-.682-.572-1.71-.469-2.297.23l-12.754 15.2c-.587.7-.51 1.73.172 2.303l1.235 1.036c1.364 1.145 3.421.938 4.595-.46l10.628-12.667c1.174-1.399 1.02-3.46-.344-4.605Z"/></g><g fill="#E7ECF3" fill-rule="nonzero"><path d="m1072.218 431.54-4.485-3.763 2.25-2.683c.265-.316.436-.7.493-1.106a5.015 5.015 0 0 0 2.553-1.615c1.781-2.182 1.483-5.371-.665-7.125a4.956 4.956 0 0 0-1.741-.916 5.755 5.755 0 0 0-4.546-5.927c.461-3.22-1.762-6.165-4.966-6.578a5.922 5.922 0 0 0-4.705 1.474c-1.36-2.423-4.438-3.251-6.875-1.85a5.17 5.17 0 0 0-1.338 1.104l-6.645 7.919c-1.16 1.405-1.124 3.436.082 4.765l-13.602 16.21c-1.84 1.827-1.878 4.783-.083 6.601.2.203.419.386.653.548l13.782 11.564c1.795 1.818 4.743 1.81 6.584-.017.205-.204.39-.426.556-.663l.367-.438 4.485 3.764c2.801 2.35 6.259 1.633 9.238-1.917l8.324-9.92c2.969-3.587 3.06-7.1.284-9.43Zm-27.898 17.501a2.559 2.559 0 0 1-.586-.492l-13.783-11.564c-1.223-.747-1.596-2.356-.833-3.594a2.68 2.68 0 0 1 .5-.595l13.82-16.47a3.643 3.643 0 0 0 3.697-1.165l1.564-1.864a5.147 5.147 0 0 0 4.467 2.505c-.508 3.213 1.672 6.19 4.869 6.651a5.933 5.933 0 0 0 5.316-1.999l.3-.357.21-.25 4.517 3.79c.035.029.04.082.01.118l-20.471 24.396c-.763 1.238-2.374 1.637-3.597.89Zm25.418-27.026-5.347-4.486a1.05 1.05 0 0 0-1.478.14c-.05.05-.096.104-.136.163l-.068.08a5.195 5.195 0 0 1-.598.714l-.388.462c-1.376 1.576-3.748 1.755-5.299.4-1.318-1.153-1.646-3.081-.787-4.637.228-.4.173-.9-.136-1.233a1.04 1.04 0 0 0-1.186-.207c-1.509.692-3.274.034-3.941-1.469a2.969 2.969 0 0 1-.237-.877 1.03 1.03 0 0 0-1.151-.92c-.27.033-.52.169-.694.38l-2.761 3.29a1.575 1.575 0 0 1-2.218.212 1.575 1.575 0 0 1-.177-2.22l6.645-7.92c1.1-1.233 2.977-1.354 4.191-.27a2.93 2.93 0 0 1 .973 2.09 1.03 1.03 0 0 0 1.04 1.044c.448-.004.848-.291.997-.716.137-.33.324-.64.552-.917 1.33-1.615 3.698-1.862 5.288-.552 1.272 1.047 1.695 2.818 1.04 4.356a1.038 1.038 0 0 0 .978 1.428 3.69 3.69 0 0 1 3.712 3.747 3.8 3.8 0 0 1-.112.876 1.034 1.034 0 0 0 .936 1.283c.623.04 1.216.276 1.692.674 1.238 1.016 1.408 2.857.38 4.117a2.884 2.884 0 0 1-1.71.968Zm-7.747 27.531c-1.272 1.516-3.776 3.738-6.282 1.635l-4.469-3.75 2.428-2.893 2.043 1.714c1.716 1.44 3.894 1.016 5.676-1.107l4.509-5.374c1.782-2.124 1.82-4.342.105-5.782l-2.043-1.714 2.414-2.877 4.485 3.763c2.506 2.103.746 4.962-.519 6.47l-8.347 9.915Zm-6.97-6.621 7.578-9.014 2.043 1.714c.798.67.672 1.614-.341 2.821l-4.509 5.374c-1.013 1.208-1.93 1.489-2.72.826l-2.05-1.721Z"/><path d="M1047.19 418.726c-.37-.31-.958-.22-1.313.204l-10.556 12.58c-.355.422-.342 1.017.028 1.328.37.31.958.22 1.313-.203l10.555-12.58c.355-.423.343-1.018-.027-1.329ZM1051.212 422.101c-.37-.31-.958-.22-1.313.204l-10.556 12.58c-.355.422-.342 1.017.028 1.328.37.31.958.22 1.313-.203l10.556-12.58c.354-.423.342-1.018-.028-1.329ZM1054.564 424.914c-.37-.31-.959-.22-1.313.203l-10.556 12.58c-.355.423-.343 1.018.028 1.328.37.31.958.22 1.313-.203l10.555-12.58c.355-.423.343-1.018-.027-1.328ZM1058.586 428.289c-.37-.31-.958-.22-1.313.203l-10.556 12.58c-.355.423-.342 1.018.028 1.328.37.31.958.22 1.313-.203l10.556-12.58c.354-.423.342-1.018-.028-1.328Z"/></g><g fill="#E7ECF3" fill-rule="nonzero"><path d="m1057.794 138.63-28.766 15.295c-1.699.903-2.339 3.036-1.426 4.752l1.104 2.076c3.938 7.406 11.56 11.97 19.888 11.911a1.16 1.16 0 0 0 1.147-1.182 1.183 1.183 0 0 0-1.185-1.164c-7.452.053-14.272-4.03-17.796-10.657l-1.103-2.076a1.17 1.17 0 0 1 .475-1.584l28.766-15.295a1.17 1.17 0 0 1 1.579.491l1.104 2.076c3.524 6.628 3.095 14.565-1.12 20.711a1.183 1.183 0 0 0 .303 1.634c.372.26.841.274 1.213.077.16-.086.3-.208.409-.367 4.71-6.87 5.188-15.739 1.25-23.147l-1.104-2.076c-.913-1.717-3.039-2.378-4.738-1.475Z"/><path d="M1078.174 155.06c-.386-.342-.907-.423-1.32-.203l-45.03 23.943c-.414.22-.638.697-.571 1.209a1.4 1.4 0 0 0 .882 1.126l3.657 1.341c2.157.789 4.396.664 6.31-.354l31.754-16.884c1.914-1.017 3.272-2.805 3.826-5.035l.933-3.782a1.4 1.4 0 0 0-.44-1.361Zm-2.799 4.3c-.393 1.59-1.365 2.868-2.73 3.594l-31.757 16.886c-1.365.726-2.968.817-4.507.253l-.874-.32 40.091-21.317-.223.903ZM1070.055 138.922c-3.723-.292-7.145 3.993-7.524 4.48a1.155 1.155 0 0 0 .209 1.628c.511.39 1.241.292 1.639-.22.757-.978 3.385-3.736 5.476-3.57.942.073 1.749.759 2.458 2.092 2.177 4.094-4.846 11.002-7.742 13.323l-.654.532a1.158 1.158 0 0 0-.176 1.633 1.167 1.167 0 0 0 1.64.159l.65-.527c.486-.39 11.865-9.6 8.347-16.218-1.094-2.057-2.549-3.17-4.323-3.312ZM1046.65 133.177c.426-2.92-1.322-6.206-3.98-7.486-.565-.272-1.198-.03-1.418.548-.22.575.059 1.259.624 1.53 1.683.81 2.877 3.056 2.607 4.909-.427 2.92 1.32 6.207 3.98 7.486.324.156.67.142.949-.006.206-.11.377-.296.47-.542.22-.575-.06-1.261-.624-1.531-1.685-.808-2.88-3.054-2.607-4.908ZM1040.574 136.407c.427-2.92-1.32-6.207-3.98-7.486-.564-.273-1.2-.028-1.419.547-.22.576.06 1.262.624 1.532 1.685.808 2.88 3.054 2.608 4.908-.425 2.92 1.323 6.207 3.98 7.486.324.157.67.143.948-.005.207-.11.376-.295.471-.542.22-.575-.059-1.26-.624-1.531-1.683-.81-2.878-3.056-2.608-4.909ZM1034.502 139.638c.425-2.92-1.323-6.207-3.981-7.487-.564-.273-1.199-.03-1.419.548-.219.572.061 1.258.624 1.529 1.683.81 2.877 3.056 2.607 4.909-.427 2.92 1.321 6.208 3.981 7.487.324.156.67.142.948-.006.207-.11.378-.296.472-.54.22-.575-.06-1.261-.625-1.531-1.686-.81-2.879-3.055-2.607-4.91Z"/></g><g fill="#E7ECF3" fill-rule="nonzero"><path d="M519.118 119.189a1.27 1.27 0 0 0-.817-1.604l-3.429-1.11a1.278 1.278 0 0 0-1.607.82 1.27 1.27 0 0 0 .817 1.603l3.428 1.11c.67.216 1.39-.15 1.608-.82ZM506.64 94.7a1.27 1.27 0 0 0-.817-1.604l-3.429-1.11a1.278 1.278 0 0 0-1.607.82 1.27 1.27 0 0 0 .817 1.603l3.428 1.11c.67.216 1.39-.15 1.608-.82ZM519.982 111.894a1.27 1.27 0 0 0-.817-1.604l-3.429-1.11a1.278 1.278 0 0 0-1.607.82 1.27 1.27 0 0 0 .817 1.603l3.428 1.11c.67.216 1.39-.15 1.608-.82ZM513.974 100.102a1.27 1.27 0 0 0-.817-1.603l-3.429-1.11a1.278 1.278 0 0 0-1.607.82 1.27 1.27 0 0 0 .817 1.603l3.428 1.11c.67.216 1.39-.15 1.608-.82ZM512.648 106.49a1.27 1.27 0 0 0-.817-1.603l-3.429-1.11a1.278 1.278 0 0 0-1.607.82 1.27 1.27 0 0 0 .817 1.603l3.428 1.11c.67.216 1.39-.15 1.608-.82Z"/><path d="M503.67 144.615a3.58 3.58 0 0 0 1.558-4.81l-.542-1.063 3.42-1.742.18.074c.979.37 2.114 1.606 2.605 2.54a1.192 1.192 0 0 0 1.609.502 1.192 1.192 0 0 0 .506-1.596l-.007-.014c-.477-.906-1.336-1.995-2.368-2.793l2.78-1.417c1.189 1.025 2.957 1.208 4.339.271 9.418-6.378 12.612-18.857 7.43-29.027l-4.983-9.78c-5.182-10.17-17.155-14.92-27.85-11.05-1.566.565-2.463 2.099-2.331 3.669l-2.734 1.393c-.06-1.299-.44-2.635-.93-3.561a1.192 1.192 0 0 0-1.608-.501 1.192 1.192 0 0 0-.498 1.61c.499.943.854 2.62.566 3.673l-.011.043-3.51 1.789-.542-1.063a3.574 3.574 0 0 0-4.807-1.568 3.579 3.579 0 0 0-1.78 4.265 3.379 3.379 0 0 0-2.067 1.008 10.733 10.733 0 0 0-1.864 12.364l15.814 31.037a10.733 10.733 0 0 0 11.1 5.76 3.378 3.378 0 0 0 2.028-1.079 3.574 3.574 0 0 0 4.498 1.066Zm-10.51-57.662c9.567-3.462 20.28.789 24.916 9.889l4.982 9.779c4.637 9.1 1.78 20.264-6.645 25.97-.574.39-1.352.182-1.693-.39a.701.701 0 0 1-.042-.074L492.513 88.63c-.32-.626-.036-1.43.645-1.676Zm13.444 42.945c.935-3.42-.664-6.558-3.98-7.81-2.164-.818-3.13-2.713-2.519-4.945.935-3.419-.664-6.557-3.98-7.81-2.164-.818-3.13-2.713-2.519-4.945.935-3.419-.663-6.557-3.98-7.81-1.835-.693-2.811-2.146-2.689-3.953l3.922-1.998 21.23 41.665-3.984 2.03c-1.444-.972-2.004-2.587-1.501-4.424Zm-.799 5.596-2.202 1.122-21.23-41.666 2.234-1.138c.094.676.296 1.317.596 1.906.699 1.371 1.931 2.467 3.586 3.091 2.165.818 3.13 2.713 2.52 4.945-.936 3.42.663 6.558 3.98 7.81 2.164.818 3.13 2.713 2.519 4.945-.936 3.419.663 6.557 3.979 7.81 2.165.818 3.13 2.713 2.52 4.945-.652 2.38-.067 4.653 1.498 6.23Zm-9.006 6.774a8.348 8.348 0 0 1-8.632-4.48l-15.814-31.038a8.348 8.348 0 0 1 1.448-9.616c.538-.552 1.499-.333 1.854.364l21.938 43.056c.357.7-.036 1.604-.794 1.714Zm4.186-.301-24.48-48.043a1.193 1.193 0 0 1 .52-1.604 1.192 1.192 0 0 1 1.602.523l24.48 48.043a1.193 1.193 0 0 1-.52 1.603 1.192 1.192 0 0 1-1.602-.522Z"/></g><g fill="#E7ECF3" fill-rule="nonzero"><path d="M287.073 40.341c-2.003-2.847-5.001-4.697-8.449-5.237-6.616-1.015-13.05 3.495-14.348 10.064a12.624 12.624 0 0 0 1.33 8.542 18.342 18.342 0 0 1 1.94 12.31s-.656 1.865.712 2.13l8.6 1.672c1.399.272 1.459-1.709 1.459-1.709.795-4.09 3.085-7.846 6.628-10.86a12.55 12.55 0 0 0 4.206-7.206 12.543 12.543 0 0 0-2.078-9.706Zm-3.566 15.225c-3.854 3.278-6.374 7.38-7.312 11.875l-6.43-1.25a20.58 20.58 0 0 0-2.22-13.544 10.447 10.447 0 0 1-1.09-7.044c1.076-5.422 6.381-9.144 11.841-8.31 2.849.445 5.324 1.977 6.97 4.321a10.35 10.35 0 0 1 1.714 8.01c-.467 2.346-1.657 4.4-3.473 5.942ZM293.73 33.354a1.092 1.092 0 0 0-1.531-.297l-3.161 2.14a1.1 1.1 0 0 0-.299 1.535c.346.5 1.031.645 1.531.297l3.161-2.139a1.1 1.1 0 0 0 .298-1.536ZM276.575 70.602l-8.347-1.622c-.582-.113-1.115.16-1.2.601-.088.45.315.897.887 1.008l8.348 1.623c.582.113 1.114-.161 1.2-.602.085-.441-.316-.896-.888-1.008ZM274.237 73.488l-5.724-1.113c-.643-.125-1.223.14-1.308.58-.088.45.364.907.995 1.03l5.724 1.112c.642.125 1.222-.14 1.308-.58.085-.442-.364-.907-.995-1.03ZM279.507 31.092c.448.087.894-.311 1.004-.877l.693-3.567c.112-.576-.162-1.103-.602-1.189-.44-.085-.893.311-1.003.877l-.693 3.566c-.112.577.154 1.103.601 1.19ZM268.834 32.866c.51-.345.644-1.035.298-1.537l-2.13-3.17a1.093 1.093 0 0 0-1.532-.297c-.5.347-.645 1.035-.3 1.536l2.132 3.17a1.113 1.113 0 0 0 1.532.298ZM295.885 48.47l-3.557-.691c-.575-.112-1.102.163-1.187.604-.086.441.309.895.874 1.005l3.557.692c.575.111 1.102-.164 1.187-.605.086-.44-.309-.895-.874-1.005ZM261.37 41.761l-3.558-.691c-.575-.112-1.101.163-1.187.604-.086.441.31.895.874 1.005l3.558.691c.575.112 1.101-.163 1.187-.604.086-.44-.3-.893-.874-1.005Z"/></g><g transform="rotate(-30 713.26 -103.139)" stroke="#E7ECF3" stroke-width="3"><rect x="43.399" y="1.5" width="7.974" height="47" rx="3.987"/><rect x="54.373" y="6.602" width="5.978" height="36.796" rx="2.989"/><rect x="10.478" y="1.5" width="7.974" height="47" rx="3.987"/><rect x="1.5" y="6.602" width="5.978" height="36.796" rx="2.989"/><path d="M19.457 23.949h23.935v3.122H19.457z"/></g><path d="m777.818 124.514-16.595 8.824c-2.288 1.217-2.915 4.527-1.398 7.38l17.972 33.8c1.517 2.853 4.612 4.184 6.9 2.968l16.595-8.824c2.288-1.217 2.915-4.527 1.398-7.38l-17.972-33.8c-1.517-2.853-4.612-4.184-6.9-2.968Zm23.721 38.765c.543 1.021.301 2.216-.54 2.662l-18.288 9.725c-.84.447-1.966-.02-2.509-1.042l-19.303-36.304c-.543-1.021-.301-2.216.539-2.663l2.715-1.443.927.977c.61.643 1.46.842 2.115.494l9.335-4.964c.655-.348.966-1.165.774-2.03l-.292-1.314 2.715-1.444c.84-.447 1.966.02 2.509 1.042l19.303 36.304Z" fill="#E7ECF3" fill-rule="nonzero"/><g fill="#C6CFD9" fill-rule="nonzero"><path d="M1143.076 323.766c-1.494-2.362-3.828-3.97-6.578-4.55-5.276-1.096-10.632 2.23-11.945 7.425a10.06 10.06 0 0 0 .72 6.883 14.616 14.616 0 0 1 1.055 9.92s-.603 1.463.486 1.734l6.845 1.707c1.113.278 1.242-1.303 1.242-1.303.807-3.234 2.801-6.137 5.772-8.393a10 10 0 0 0 3.676-5.578 10.003 10.003 0 0 0-1.273-7.845Zm-3.49 12.013c-3.232 2.454-5.425 5.623-6.363 9.175l-5.118-1.276a16.4 16.4 0 0 0-1.23-10.92 8.325 8.325 0 0 1-.588-5.676c1.087-4.287 5.504-7.033 9.858-6.13 2.272.478 4.2 1.809 5.426 3.753a8.254 8.254 0 0 1 1.05 6.476 8.243 8.243 0 0 1-3.034 4.598ZM1148.713 318.47a.884.884 0 0 0-1.219-.304l-2.628 1.573a.877.877 0 0 0-.303 1.214.891.891 0 0 0 1.218.304l2.629-1.573a.877.877 0 0 0 .303-1.215ZM1133.4 347.496l-6.645-1.656c-.463-.116-.902.08-.989.429-.088.355.217.73.672.843l6.644 1.657c.463.115.902-.08.99-.43.086-.348-.217-.73-.672-.843ZM1131.401 349.701l-4.555-1.136c-.512-.127-.989.06-1.076.408-.088.355.256.74.758.865l4.556 1.136c.511.127.988-.06 1.075-.408.087-.349-.255-.74-.758-.865ZM1137.373 316.048c.356.089.73-.21.842-.658l.703-2.82c.114-.455-.085-.889-.435-.976-.35-.087-.73.21-.842.658l-.704 2.82c-.113.455.08.887.436.976ZM1128.72 317.006c.424-.254.56-.8.303-1.215l-1.583-2.625a.884.884 0 0 0-1.22-.304.885.885 0 0 0-.303 1.215l1.584 2.625a.9.9 0 0 0 1.219.304ZM1149.827 330.642l-2.831-.706c-.458-.114-.892.083-.98.432-.086.348.213.728.662.84l2.832.706c.457.115.892-.083.979-.431.087-.349-.212-.729-.662-.841ZM1122.356 323.793l-2.832-.706c-.457-.114-.891.083-.978.431-.087.35.212.73.661.841l2.832.706c.457.114.892-.083.979-.432.087-.348-.205-.726-.662-.84Z"/></g><g transform="rotate(11 -937.498 401.598)" stroke="#C6CFD9"><path d="M0 37.042h26.992c.711 0 .747.583 1.459.583 2.092 0 4.086.034 6.774 0 .494-.007 1.02-.574 1.611-.583 3.461-.056 12.516-.056 27.164 0A2.958 2.958 0 0 1 61.042 40H2.958A2.958 2.958 0 0 1 0 37.042Z"/><rect stroke-width="2" x="3" y="1" width="59" height="33" rx="2"/></g><g fill="#C6CFD9" fill-rule="nonzero"><path d="m989.285 68.92 4.17 2.312 1.358-2.45c.16-.289.4-.525.69-.683a3.964 3.964 0 0 1 .462-2.376 4.085 4.085 0 0 1 5.576-1.51c.467.267.877.624 1.207 1.05a4.74 4.74 0 0 1 5.821 1.747 4.748 4.748 0 0 1 6.437 1.878 4.73 4.73 0 0 1 .28 3.955 4.091 4.091 0 0 1 3.435 4.65c-.07.46-.217.907-.438 1.318l-4.009 7.232a2.93 2.93 0 0 1-3.62 1.284l-8.208 14.806a3.76 3.76 0 0 1-5.565 1.589l-12.814-7.103a3.764 3.764 0 0 1-1.601-5.562l.221-.4-4.17-2.31c-2.604-1.444-3.087-4.248-1.29-7.49l5.023-9.061c1.828-3.246 4.453-4.307 7.035-2.875Zm-4.946 25.924c.166.127.35.229.545.302l12.813 7.103a2.112 2.112 0 0 0 3.261-.932l8.339-15.043a2.911 2.911 0 0 1-.216-3.11l.944-1.702a4.249 4.249 0 0 1-3.215-2.653 4.748 4.748 0 0 1-6.463-1.785 4.73 4.73 0 0 1-.066-4.563l.18-.326.128-.23-4.2-2.327a.068.068 0 0 0-.092.026l-12.352 22.283a2.108 2.108 0 0 0 .394 2.957Zm12.871-26.747 4.971 2.756c.41.227.558.742.332 1.151a.852.852 0 0 1-.082.148s-.03.052-.041.074c-.14.206-.261.424-.362.652l-.233.422a3.034 3.034 0 0 0 1.268 4.098 3.035 3.035 0 0 0 3.733-.716.847.847 0 0 1 .97-.246.849.849 0 0 1 .509.833 2.42 2.42 0 0 0 3.009 2.481.85.85 0 0 1 .954 1.235l-1.666 3.006a1.271 1.271 0 0 0 .497 1.727c.615.341 1.389.12 1.729-.493l4.009-7.233a2.403 2.403 0 0 0-2.904-3.37.85.85 0 0 1-1.095-.49.845.845 0 0 1 .244-.95c.21-.197.388-.424.53-.675a3.034 3.034 0 0 0-1.15-4.133 3.037 3.037 0 0 0-3.597.448.849.849 0 0 1-1.367-.333 3.041 3.041 0 0 0-4.557-1.403.85.85 0 0 1-1.246-.342 2.413 2.413 0 0 0-1.01-1.083 2.364 2.364 0 0 0-3.22.876 2.283 2.283 0 0 0-.225 1.56Zm-18.488 13.598c-.767 1.384-1.703 3.895.627 5.186l4.155 2.303 1.465-2.643-1.9-1.053c-1.595-.884-1.92-2.642-.845-4.581l2.72-4.908c1.076-1.94 2.739-2.596 4.334-1.711l1.9 1.053 1.456-2.629-4.17-2.31c-2.33-1.292-3.966.839-4.73 2.216l-5.012 9.077Zm7.063 3.373 4.56-8.244-1.9-1.052c-.741-.412-1.416-.05-2.028 1.052l-2.72 4.909c-.612 1.103-.553 1.871.182 2.278l1.906 1.057Z"/><path d="M1006.373 84.13c.344.19.45.658.236 1.044l-6.37 11.49c-.213.387-.666.545-1.01.354-.344-.19-.45-.658-.236-1.044l6.37-11.49c.213-.387.666-.545 1.01-.355ZM1002.634 82.057c.344.19.45.658.235 1.044l-6.369 11.49c-.214.387-.667.545-1.01.355-.345-.191-.45-.659-.236-1.045l6.369-11.49c.214-.387.667-.545 1.01-.354ZM999.518 80.33c.344.19.45.658.235 1.044l-6.369 11.49c-.214.387-.667.545-1.01.354-.345-.19-.45-.658-.236-1.044l6.369-11.49c.214-.387.667-.546 1.01-.355ZM995.778 78.256c.345.191.45.66.236 1.045l-6.37 11.49c-.213.387-.666.545-1.01.355-.344-.191-.45-.659-.236-1.045l6.37-11.49c.214-.387.666-.545 1.01-.355Z"/></g></g></svg>