<?xml version="1.0" encoding="UTF-8"?>
<svg width="1251px" height="462px" viewBox="0 0 1251 462" version="1.1" xmlns="http://www.w3.org/2000/svg" xmlns:xlink="http://www.w3.org/1999/xlink">
    <title>Background banner</title>
    <g id="Page-2" stroke="none" stroke-width="1" fill="none" fill-rule="evenodd">
        <g id="articles-copy" transform="translate(-94.000000, -80.000000)">
            <g id="Background-banner" transform="translate(94.897361, 80.000000)">
                <g id="30" transform="translate(42.190981, 0.000000)">
                    <g id="iphone" transform="translate(1037.479649, 257.000000) rotate(-41.000000) translate(-1037.479649, -257.000000) translate(1029.000000, 242.000000)" fill="#A1B0C1" fill-rule="nonzero">
                        <path d="M14.1327481,0 C13.6029113,0 3.18726445,0 2.82654961,0 C1.26799016,0 0,1.57710938 0,3.515625 L0,26.484375 C0,28.4228906 1.26799016,30 2.82654961,30 L14.1327481,30 C15.6913075,30 16.9592977,28.4228906 16.9592977,26.484375 L16.9592977,3.515625 C16.9592977,1.57710938 15.6913075,0 14.1327481,0 Z M15.7840308,27.2178819 C15.7840308,27.9119184 15.3182385,28.4765625 14.7457065,28.4765625 L2.28581431,28.4765625 C1.71328226,28.4765625 1.24748996,27.9119184 1.24748996,27.2178819 L1.24748996,2.54774306 C1.24748996,1.8537066 1.71328226,1.2890625 2.28581431,1.2890625 L4.13553722,1.2890625 L4.35182018,2.06812283 C4.49396678,2.58034288 4.89008752,2.92534722 5.33589208,2.92534722 L11.6956287,2.92534722 C12.1414333,2.92534722 12.537554,2.58034288 12.6797006,2.06812283 L12.8959836,1.2890625 L14.7457065,1.2890625 C15.3182385,1.2890625 15.7840308,1.8537066 15.7840308,2.54774306 L15.7840308,27.2178819 Z" id="Shape"></path>
                    </g>
                    <g id="light-bulb" transform="translate(864.236233, 125.000000) rotate(20.000000) translate(-864.236233, -125.000000) translate(851.766161, 110.000000)" fill="#A1B0C1" fill-rule="nonzero">
                        <path d="M18.0770161,8.02432513 C16.5463035,6.57662975 14.5356217,5.83046076 12.4081907,5.90699091 C8.32845248,6.06642873 5.00109844,9.45926549 4.98807714,13.4770985 C4.98164023,15.2564245 5.61727511,16.991108 6.77828169,18.3558957 C8.45168782,20.3329246 9.37270979,22.8265321 9.37270979,25.3839147 C9.37270979,25.3839147 9.1975859,26.557377 10.0472611,26.557377 L15.391783,26.557377 C16.2609164,26.557377 16.0663343,25.3839147 16.0663343,25.3839147 C16.0663343,22.8839297 17.0003284,20.4094548 18.7710256,18.2283455 C19.8671715,16.8699353 20.4509178,15.237292 20.4509178,13.5026085 C20.4509178,11.4171619 19.6077287,9.465643 18.0770161,8.02432513 L18.0770161,8.02432513 Z M17.7137961,17.3992688 C15.7874333,19.7717035 14.7561481,22.4757689 14.7172317,25.2308544 L10.7218124,25.2308544 C10.682896,22.4183713 9.65809688,19.6824184 7.81605293,17.5076865 C6.8626006,16.3788668 6.33722891,14.9503039 6.34365563,13.483476 C6.35668712,10.1671694 9.10029484,7.36744132 12.4665653,7.23351356 C14.2242903,7.16973843 15.8847243,7.78835716 17.143022,8.98095204 C18.4078057,10.1735469 19.1018152,11.7806801 19.1018152,13.5026085 C19.0953291,14.9375489 18.621846,16.2832041 17.7137961,17.3992688 L17.7137961,17.3992688 Z" id="Shape"></path>
                        <path d="M21.2495416,3.14716801 C20.9842324,2.88537022 20.5571493,2.88537022 20.2983111,3.14716801 L18.6546882,4.76903725 C18.389379,5.03083504 18.389379,5.45226563 18.6546882,5.7076781 C18.9199974,5.96309058 19.3470805,5.96947589 19.6059188,5.7076781 L21.2495416,4.08580887 C21.5148508,3.83039639 21.5148508,3.4089658 21.2495416,3.14716801 Z" id="Path"></path>
                        <path d="M15.3132482,27.0491803 L10.1256983,27.0491803 C9.76406624,27.0491803 9.47725459,27.2714376 9.47725459,27.5409836 C9.47725459,27.8152585 9.77030128,28.0327869 10.1256983,28.0327869 L15.3132482,28.0327869 C15.6748803,28.0327869 15.9616919,27.8105296 15.9616919,27.5409836 C15.9616919,27.2714376 15.6686453,27.0491803 15.3132482,27.0491803 Z" id="Path"></path>
                        <path d="M14.2485621,29.0163934 L10.6915816,29.0163934 C10.2925393,29.0163934 9.97605746,29.2386507 9.97605746,29.5081967 C9.97605746,29.7824716 10.2994193,30 10.6915816,30 L14.2485621,30 C14.6476044,30 14.9640862,29.7777427 14.9640862,29.5081967 C14.9640862,29.2386507 14.6407243,29.0163934 14.2485621,29.0163934 Z" id="Path"></path>
                        <path d="M12.4700718,3.44262295 C12.7482504,3.44262295 12.9688747,3.15725562 12.9688747,2.81117183 L12.9688747,0.631451123 C12.9688747,0.279295689 12.7434542,0 12.4700718,0 C12.1966895,0 11.971269,0.285367335 11.971269,0.631451123 L11.971269,2.81117183 C11.971269,3.16332726 12.1918933,3.44262295 12.4700718,3.44262295 Z" id="Path"></path>
                        <path d="M6.28529448,5.70992394 C6.55081831,5.44791288 6.55081831,5.02613898 6.28529448,4.77051843 L4.64034198,3.14732797 C4.37481815,2.88531691 3.94738954,2.88531691 3.68834191,3.14732797 C3.42929427,3.40933903 3.42281808,3.83111293 3.68834191,4.08673347 L5.33329441,5.70992394 C5.59881824,5.96554448 6.02624684,5.96554448 6.28529448,5.70992394 L6.28529448,5.70992394 Z" id="Path"></path>
                        <path d="M24.2997054,11.8032787 L22.0889618,11.8032787 C21.7317943,11.8032787 21.4485235,12.0255359 21.4485235,12.295082 C21.4485235,12.564628 21.7379524,12.7868852 22.0889618,12.7868852 L24.2997054,12.7868852 C24.6568729,12.7868852 24.9401437,12.564628 24.9401437,12.295082 C24.9401437,12.0255359 24.6507148,11.8032787 24.2997054,11.8032787 Z" id="Path"></path>
                        <path d="M2.85118185,11.8032787 L0.640438257,11.8032787 C0.283270767,11.8032787 0,12.0255359 0,12.295082 C0,12.564628 0.289428828,12.7868852 0.640438257,12.7868852 L2.85118185,12.7868852 C3.20834934,12.7868852 3.49162011,12.564628 3.49162011,12.295082 C3.49162011,12.0255359 3.20834934,11.8032787 2.85118185,11.8032787 L2.85118185,11.8032787 Z" id="Path"></path>
                    </g>
                    <g id="hamburger" transform="translate(791.411014, 49.000000) scale(1, -1) rotate(-114.000000) translate(-791.411014, -49.000000) translate(772.955307, 34.000000)" fill="#A1B0C1" fill-rule="nonzero">
                        <path d="M27.458345,6.95877481 C27.158059,6.66000023 26.671142,6.66000023 26.3707792,6.95877481 L24.8328229,8.48938227 C24.5325369,8.78823338 24.5325369,9.2728237 24.8328229,9.57175134 C25.1332626,9.87067897 25.6201027,9.87060244 25.9203887,9.57175134 L27.458345,8.04114388 C27.7586309,7.74229277 27.7586309,7.25770245 27.458345,6.95877481 Z" id="Path"></path>
                        <path d="M10.8482093,6.95877481 C10.5479233,6.66000023 10.0610064,6.66000023 9.76064351,6.95877481 L8.22268721,8.48938227 C7.92240124,8.78823338 7.92240124,9.2728237 8.22268721,9.57175134 C8.52312697,9.87067897 9.00996704,9.87060244 9.31025301,9.57175134 L10.8482093,8.04114388 C11.1484953,7.74229277 11.1484953,7.25770245 10.8482093,6.95877481 Z" id="Path"></path>
                        <path d="M23.7672037,4.50979522 C23.4669178,4.21102064 22.9800008,4.21102064 22.6796379,4.50979522 L21.1416816,6.04040268 C20.8413957,6.33925379 20.8413957,6.82384411 21.1416816,7.12277175 C21.4421214,7.42169938 21.9289615,7.42162285 22.2292474,7.12277175 L23.7672037,5.59216428 C24.0674897,5.29331318 24.0674897,4.80872286 23.7672037,4.50979522 Z" id="Path"></path>
                        <path d="M15.769731,4.50979522 C15.469445,4.21102064 14.9825281,4.21102064 14.6821652,4.50979522 L13.1442089,6.04040268 C12.8439229,6.33925379 12.8439229,6.82384411 13.1442089,7.12277175 C13.4446487,7.42169938 13.9314887,7.42162285 14.2317747,7.12277175 L15.769731,5.59216428 C16.070017,5.29331318 16.070017,4.80872286 15.769731,4.50979522 Z" id="Path"></path>
                        <path d="M18.845682,6.95877481 C18.5453961,6.66000023 18.0584791,6.66000023 17.7581162,6.95877481 L16.2201599,8.48938227 C15.919874,8.78823338 15.919874,9.2728237 16.2201599,9.57175134 C16.5205997,9.87067897 17.0074398,9.87060244 17.3077257,9.57175134 L18.845682,8.04114388 C19.145968,7.74229277 19.145968,7.25770245 18.845682,6.95877481 Z" id="Path"></path>
                        <path d="M36.9113552,22.1428571 C36.9113552,20.9612857 35.941136,20 34.748584,20 L34.0276603,20 L34.0276603,17.6978571 C34.0573624,17.6722857 34.0876411,17.6477857 34.1168386,17.6214286 C34.5847901,17.1987857 35.5622185,16.9285714 36.1995151,16.9205714 C36.5976092,16.9156429 36.9163295,16.5917857 36.9113552,16.1973571 C36.9063087,15.806 36.5845604,15.4920714 36.1905756,15.4920714 C36.1875478,15.4920714 36.1843757,15.4920714 36.1813478,15.4921429 C35.5627232,15.4998571 34.740798,15.6625714 34.0276603,15.9966429 L34.0276603,14.1242857 C34.905457,13.7683571 35.4890448,12.8729286 35.3637482,11.8789286 C34.5133466,5.10685714 28.6701878,0 21.7719571,0 L15.1394589,0 C8.24122822,0 2.3980694,5.10685714 1.54766778,11.8786429 C1.4227317,12.8697143 2.00235437,13.767 2.88375571,14.1243571 L2.88375571,15.9651429 C2.16795055,15.6438571 1.34407893,15.4831429 0.711540456,15.4921429 C0.313446379,15.4972857 -0.00505771913,15.8212857 6.08392661e-05,16.2157857 C0.0053235824,16.6070714 0.327071837,16.9206429 0.720840372,16.9206429 C0.724012436,16.9206429 0.727256593,16.9206429 0.73050075,16.9205714 C1.37515074,16.9107857 2.37579286,17.1776429 2.86385821,17.6187143 C2.87034653,17.6246429 2.8772674,17.6302143 2.8838278,17.6360714 L2.8838278,20 L2.16283199,20 C0.967973022,20 6.08392661e-05,20.9588571 6.08392661e-05,22.1428571 C6.08392661e-05,23.2046429 0.78370492,24.0880714 1.80799334,24.2563571 C1.63951346,24.697 1.62740195,25.1784286 1.78362612,25.6358571 C2.67713897,28.2461429 5.1472399,30 7.93022173,30 L28.9811943,30 C31.7641761,30 34.234277,28.2461429 35.1280062,25.6354286 C35.2840862,25.1784286 35.2719746,24.6972143 35.1035669,24.2566429 C36.1085345,24.0929286 36.9113552,23.2264286 36.9113552,22.1428571 Z M2.97841299,12.0552857 C3.73927588,5.99707143 8.96734259,1.42857143 15.1394589,1.42857143 L21.7719571,1.42857143 C27.9440734,1.42857143 33.1721401,5.99707143 33.933003,12.0556429 C33.9850537,12.4684286 33.6599892,12.8278571 33.2585068,12.8545 C33.2537487,12.8547857 33.2489906,12.8552143 33.2442325,12.8556429 C33.2319047,12.8567143 33.2195769,12.8571429 33.2072491,12.8571429 L3.7041669,12.8571429 C3.27954283,12.8571429 2.92412744,12.4867143 2.97841299,12.0552857 Z M29.7913683,16.5657143 C28.2071385,15.1343571 26.078467,15.1343571 24.4942372,16.5657143 C23.4597837,17.5002857 22.1746651,17.5002857 21.1402837,16.5657143 C19.5560539,15.1343571 17.4273824,15.1343571 15.8431525,16.5657143 C14.8086991,17.5002857 13.5235805,17.5002857 12.4891991,16.5657143 C10.9049693,15.1344286 8.7762978,15.1342857 7.19192375,16.5658571 C6.31520842,17.3585714 5.26489465,17.4843571 4.32560314,16.9267857 L4.32560314,14.2857143 L32.5858129,14.2857143 L32.5858129,16.9682143 C31.6659863,17.4752857 30.6427072,17.3349286 29.7913683,16.5657143 Z M32.5858129,18.5173571 L32.5858129,20 L4.32560314,20 L4.32560314,18.4959286 C4.7154066,18.6295714 5.11544717,18.6964286 5.51512728,18.6963571 C6.44547933,18.6963571 7.37338025,18.3357857 8.16372892,17.6212857 C9.19811027,16.6867143 10.483301,16.6867143 11.5176823,17.6212857 C13.1019122,19.0527857 15.2306558,19.0527143 16.8148135,17.6212857 C17.849267,16.6867143 19.1344577,16.6867143 20.1687669,17.6212857 C21.7529968,19.0527857 23.8817404,19.0527143 25.4658981,17.6212857 C26.5002795,16.6866429 27.7854702,16.6867857 28.8198515,17.6212857 C29.9226486,18.6178571 31.3072546,18.9241429 32.5858129,18.5173571 Z M33.7623604,25.1770714 C33.0673899,27.2072857 31.145984,28.5714286 28.9811943,28.5714286 L7.93022173,28.5714286 C5.76543199,28.5714286 3.8440261,27.2072857 3.14927191,25.1775 C2.99968024,24.7396429 3.38126517,24.2857143 3.85411903,24.2857143 L33.057297,24.2857143 C33.5318811,24.2857143 33.9110148,24.7417857 33.7623604,25.1770714 Z M34.748584,22.8571429 L2.16283199,22.8571429 C1.76531465,22.8571429 1.44190827,22.5367143 1.44190827,22.1428571 C1.44190827,21.7485 1.76481001,21.4285714 2.16283199,21.4285714 L34.748584,21.4285714 C35.1461014,21.4285714 35.4695077,21.749 35.4695077,22.1428571 C35.4695077,22.5372143 35.146606,22.8571429 34.748584,22.8571429 Z" id="Shape"></path>
                    </g>
                    <g id="Ordi" transform="translate(592.388667, 28.000000) rotate(130.000000) translate(-592.388667, -28.000000) translate(569.443735, 13.000000)" stroke="#A1B0C1">
                        <path d="M0,27.0418116 C4.05726064,27.0418116 10.5085547,27.0418116 19.3538821,27.0418116 C19.8640311,27.0418116 19.8897754,27.6246302 20.3999244,27.6246302 C21.9003905,27.6246302 23.3301661,27.6587113 25.257196,27.6246302 C25.6119191,27.6183566 25.989039,27.0513243 26.4125141,27.0418116 C28.8942754,26.9860628 35.3867254,26.9860628 45.8898643,27.0418116 C45.8898643,28.6755739 44.5654383,30 42.9316759,30 L2.95818839,30 C1.32442606,30 2.00078182e-16,28.6755739 0,27.0418116 L0,27.0418116 L0,27.0418116 Z" id="Rectangle"></path>
                        <rect id="Rectangle" stroke-width="2" x="1.99760575" y="1" width="41.8946528" height="24" rx="2"></rect>
                    </g>
                    <g id="Ordi" transform="translate(1160.253791, 383.000000) scale(-1, 1) rotate(17.000000) translate(-1160.253791, -383.000000) translate(1137.308859, 368.000000)" stroke="#A1B0C1">
                        <path d="M0,27.0418116 C4.05726064,27.0418116 10.5085547,27.0418116 19.3538821,27.0418116 C19.8640311,27.0418116 19.8897754,27.6246302 20.3999244,27.6246302 C21.9003905,27.6246302 23.3301661,27.6587113 25.257196,27.6246302 C25.6119191,27.6183566 25.989039,27.0513243 26.4125141,27.0418116 C28.8942754,26.9860628 35.3867254,26.9860628 45.8898643,27.0418116 C45.8898643,28.6755739 44.5654383,30 42.9316759,30 L2.95818839,30 C1.32442606,30 2.00078182e-16,28.6755739 0,27.0418116 L0,27.0418116 L0,27.0418116 Z" id="Rectangle"></path>
                        <rect id="Rectangle" stroke-width="2" x="1.99760575" y="1" width="41.8946528" height="24" rx="2"></rect>
                    </g>
                    <g id="coffee-cup" transform="translate(281.586592, 126.000000) rotate(43.000000) translate(-281.586592, -126.000000) translate(265.126097, 111.000000)" fill="#A1B0C1" fill-rule="nonzero">
                        <path d="M25.2940473,11.3793103 L6.10751202,11.3793103 C4.97411583,11.3793103 4.05181411,12.3286094 4.05181411,13.4951821 L4.05181411,14.9057413 C4.05181411,19.9386729 6.75300117,24.5033357 11.1000956,26.8180995 C11.435881,26.9958327 11.8497187,26.8618054 12.0238106,26.5148025 C12.1964892,26.169188 12.0662736,25.7432366 11.7291392,25.5640487 C7.83975872,23.4933375 5.42225797,19.409705 5.42225797,14.9056752 L5.42225797,13.495116 C5.42225797,13.1057956 5.72926361,12.7898034 6.10751202,12.7898034 L25.2940473,12.7898034 C25.6722957,12.7898034 25.9793014,13.1057956 25.9793014,13.495116 L25.9793014,14.9056752 C25.9793014,19.4096389 23.5618006,23.4932714 19.6710711,25.562594 C19.3339366,25.7417158 19.203721,26.1677334 19.3763997,26.5133478 C19.4983925,26.7559457 19.7382025,26.8955933 19.9862353,26.8955933 C20.0931316,26.8955933 20.2000279,26.8702028 20.3000504,26.8165787 C24.6485582,24.5032035 27.3497452,19.9399954 27.3497452,14.905609 L27.3497452,13.4950499 C27.3497452,12.3286094 26.4273793,11.3793103 25.2940473,11.3793103 Z" id="Path"></path>
                        <path d="M31.3490657,25.8241456 C31.2425775,25.5340971 30.9940838,25.3448276 30.7183281,25.3448276 L0.683228855,25.3448276 C0.40747317,25.3448276 0.158979477,25.5340971 0.0524913222,25.8241456 C-0.0539968328,26.114194 0.00468684396,26.4477243 0.19993646,26.6695689 L1.73038371,28.4100051 C2.63418913,29.435318 3.83282082,30 5.10933478,30 L26.2895344,30 C27.5660484,30 28.766088,29.4353907 29.6712373,28.4100051 L31.2016845,26.6695689 C31.3968702,26.4477243 31.4555538,26.114194 31.3490657,25.8241456 Z M28.7046525,27.3132889 C28.060284,28.0454267 27.2015312,28.4487606 26.2909423,28.4487606 L5.10933478,28.4487606 C4.19874586,28.4487606 3.33999313,28.0454267 2.6956246,27.3132889 L2.32976355,26.8975939 L29.0705135,26.8975939 L28.7046525,27.3132889 Z" id="Shape"></path>
                        <path d="M31.5891859,14.9875616 C29.733906,13.784149 26.7698873,15.0904134 26.4379048,15.2418578 C26.0921704,15.4016397 25.9379296,15.8129821 26.0963024,16.1631605 C26.2546753,16.5133388 26.6610342,16.6675841 27.0094803,16.5078022 C27.6733807,16.2034805 29.8027301,15.4822797 30.8440007,16.1589917 C31.3136959,16.4633134 31.543669,17.0539137 31.543669,17.9599091 C31.543669,20.7418602 25.9819615,22.4233158 23.8346636,22.8373939 L23.3470845,22.934644 C22.9738463,23.0083143 22.7314126,23.3737349 22.8044332,23.750359 C22.8691898,24.0810614 23.1570113,24.3103448 23.4793094,24.3103448 C23.5234058,24.3103448 23.5674377,24.306176 23.61289,24.2964706 L24.0963371,24.2005884 C24.4571792,24.1310868 32.9209896,22.4566661 32.9209896,17.9599091 C32.9209896,16.5619964 32.4720837,15.5628546 31.5891859,14.9875616 Z" id="Path"></path>
                        <path d="M21.0072914,5.35141301 C22.0355707,3.92486357 22.0355707,1.69102206 21.0072914,0.264472623 C20.7884619,-0.0388048776 20.3926004,-0.0893511277 20.1181594,0.154955748 C19.8449634,0.397880499 19.8006758,0.838712248 20.0195053,1.14198975 C20.6708951,2.04478 20.6708951,3.57103982 20.0182603,4.47666013 C18.9887359,5.90320957 18.9887359,8.13705108 20.0182603,9.56360052 C20.1434751,9.73768233 20.3268508,9.82758621 20.5127758,9.82758621 C20.6506188,9.82758621 20.7910112,9.77703996 20.9073922,9.67311739 C21.1805882,9.43019264 21.2248758,8.98791295 21.0060463,8.68608339 C20.3534115,7.78322733 20.3534115,6.25703332 21.0072914,5.35141301 Z" id="Path"></path>
                        <path d="M16.9545435,5.35114839 C17.9840678,3.92451461 17.9840678,1.69054105 16.9545435,0.263907273 C16.7370183,-0.0393881572 16.3386075,-0.0885551897 16.0654115,0.154383923 C15.7922155,0.397323036 15.7479279,0.839628871 15.9667574,1.14147628 C16.6193922,2.0443199 16.6193922,3.57066994 15.9655124,4.4763438 C14.9372331,5.90297757 14.9372331,8.13695114 15.9655124,9.56358491 C16.0907272,9.73767701 16.2741029,9.82758621 16.4600279,9.82758621 C16.5978709,9.82758621 16.7370183,9.77703697 16.8546443,9.67310826 C17.1278403,9.43016915 17.1721279,8.98931134 16.9532984,8.68601591 C16.3019086,7.78310647 16.3019086,6.25682224 16.9545435,5.35114839 Z" id="Path"></path>
                        <path d="M12.9036631,5.35216572 C13.9319424,3.92541563 13.9319424,1.69125992 12.9036631,0.264509823 C12.686138,-0.0388103358 12.2889722,-0.0893636956 12.0145312,0.154977543 C11.7425802,0.396488321 11.6983519,0.838830219 11.9158771,1.14076806 C12.5672669,2.04368529 12.5672669,3.57015979 11.914632,4.47590749 C10.8851077,5.90265758 10.8851077,8.13681329 11.914632,9.56356339 C12.0398469,9.73766968 12.2232226,9.82758621 12.4091476,9.82758621 C12.5469906,9.82758621 12.687383,9.77703285 12.803764,9.67454381 C13.07696,9.43158489 13.1212476,8.98924299 12.9024181,8.68737097 C12.2497833,7.78293977 12.2497833,6.25791342 12.9036631,5.35216572 Z" id="Path"></path>
                    </g>
                    <g id="hamburger" transform="translate(157.866720, 195.000000) rotate(-13.000000) translate(-157.866720, -195.000000) translate(139.411014, 180.000000)" fill="#A1B0C1" fill-rule="nonzero">
                        <path d="M27.458345,6.95877481 C27.158059,6.66000023 26.671142,6.66000023 26.3707792,6.95877481 L24.8328229,8.48938227 C24.5325369,8.78823338 24.5325369,9.2728237 24.8328229,9.57175134 C25.1332626,9.87067897 25.6201027,9.87060244 25.9203887,9.57175134 L27.458345,8.04114388 C27.7586309,7.74229277 27.7586309,7.25770245 27.458345,6.95877481 Z" id="Path"></path>
                        <path d="M10.8482093,6.95877481 C10.5479233,6.66000023 10.0610064,6.66000023 9.76064351,6.95877481 L8.22268721,8.48938227 C7.92240124,8.78823338 7.92240124,9.2728237 8.22268721,9.57175134 C8.52312697,9.87067897 9.00996704,9.87060244 9.31025301,9.57175134 L10.8482093,8.04114388 C11.1484953,7.74229277 11.1484953,7.25770245 10.8482093,6.95877481 Z" id="Path"></path>
                        <path d="M23.7672037,4.50979522 C23.4669178,4.21102064 22.9800008,4.21102064 22.6796379,4.50979522 L21.1416816,6.04040268 C20.8413957,6.33925379 20.8413957,6.82384411 21.1416816,7.12277175 C21.4421214,7.42169938 21.9289615,7.42162285 22.2292474,7.12277175 L23.7672037,5.59216428 C24.0674897,5.29331318 24.0674897,4.80872286 23.7672037,4.50979522 Z" id="Path"></path>
                        <path d="M15.769731,4.50979522 C15.469445,4.21102064 14.9825281,4.21102064 14.6821652,4.50979522 L13.1442089,6.04040268 C12.8439229,6.33925379 12.8439229,6.82384411 13.1442089,7.12277175 C13.4446487,7.42169938 13.9314887,7.42162285 14.2317747,7.12277175 L15.769731,5.59216428 C16.070017,5.29331318 16.070017,4.80872286 15.769731,4.50979522 Z" id="Path"></path>
                        <path d="M18.845682,6.95877481 C18.5453961,6.66000023 18.0584791,6.66000023 17.7581162,6.95877481 L16.2201599,8.48938227 C15.919874,8.78823338 15.919874,9.2728237 16.2201599,9.57175134 C16.5205997,9.87067897 17.0074398,9.87060244 17.3077257,9.57175134 L18.845682,8.04114388 C19.145968,7.74229277 19.145968,7.25770245 18.845682,6.95877481 Z" id="Path"></path>
                        <path d="M36.9113552,22.1428571 C36.9113552,20.9612857 35.941136,20 34.748584,20 L34.0276603,20 L34.0276603,17.6978571 C34.0573624,17.6722857 34.0876411,17.6477857 34.1168386,17.6214286 C34.5847901,17.1987857 35.5622185,16.9285714 36.1995151,16.9205714 C36.5976092,16.9156429 36.9163295,16.5917857 36.9113552,16.1973571 C36.9063087,15.806 36.5845604,15.4920714 36.1905756,15.4920714 C36.1875478,15.4920714 36.1843757,15.4920714 36.1813478,15.4921429 C35.5627232,15.4998571 34.740798,15.6625714 34.0276603,15.9966429 L34.0276603,14.1242857 C34.905457,13.7683571 35.4890448,12.8729286 35.3637482,11.8789286 C34.5133466,5.10685714 28.6701878,0 21.7719571,0 L15.1394589,0 C8.24122822,0 2.3980694,5.10685714 1.54766778,11.8786429 C1.4227317,12.8697143 2.00235437,13.767 2.88375571,14.1243571 L2.88375571,15.9651429 C2.16795055,15.6438571 1.34407893,15.4831429 0.711540456,15.4921429 C0.313446379,15.4972857 -0.00505771913,15.8212857 6.08392661e-05,16.2157857 C0.0053235824,16.6070714 0.327071837,16.9206429 0.720840372,16.9206429 C0.724012436,16.9206429 0.727256593,16.9206429 0.73050075,16.9205714 C1.37515074,16.9107857 2.37579286,17.1776429 2.86385821,17.6187143 C2.87034653,17.6246429 2.8772674,17.6302143 2.8838278,17.6360714 L2.8838278,20 L2.16283199,20 C0.967973022,20 6.08392661e-05,20.9588571 6.08392661e-05,22.1428571 C6.08392661e-05,23.2046429 0.78370492,24.0880714 1.80799334,24.2563571 C1.63951346,24.697 1.62740195,25.1784286 1.78362612,25.6358571 C2.67713897,28.2461429 5.1472399,30 7.93022173,30 L28.9811943,30 C31.7641761,30 34.234277,28.2461429 35.1280062,25.6354286 C35.2840862,25.1784286 35.2719746,24.6972143 35.1035669,24.2566429 C36.1085345,24.0929286 36.9113552,23.2264286 36.9113552,22.1428571 Z M2.97841299,12.0552857 C3.73927588,5.99707143 8.96734259,1.42857143 15.1394589,1.42857143 L21.7719571,1.42857143 C27.9440734,1.42857143 33.1721401,5.99707143 33.933003,12.0556429 C33.9850537,12.4684286 33.6599892,12.8278571 33.2585068,12.8545 C33.2537487,12.8547857 33.2489906,12.8552143 33.2442325,12.8556429 C33.2319047,12.8567143 33.2195769,12.8571429 33.2072491,12.8571429 L3.7041669,12.8571429 C3.27954283,12.8571429 2.92412744,12.4867143 2.97841299,12.0552857 Z M29.7913683,16.5657143 C28.2071385,15.1343571 26.078467,15.1343571 24.4942372,16.5657143 C23.4597837,17.5002857 22.1746651,17.5002857 21.1402837,16.5657143 C19.5560539,15.1343571 17.4273824,15.1343571 15.8431525,16.5657143 C14.8086991,17.5002857 13.5235805,17.5002857 12.4891991,16.5657143 C10.9049693,15.1344286 8.7762978,15.1342857 7.19192375,16.5658571 C6.31520842,17.3585714 5.26489465,17.4843571 4.32560314,16.9267857 L4.32560314,14.2857143 L32.5858129,14.2857143 L32.5858129,16.9682143 C31.6659863,17.4752857 30.6427072,17.3349286 29.7913683,16.5657143 Z M32.5858129,18.5173571 L32.5858129,20 L4.32560314,20 L4.32560314,18.4959286 C4.7154066,18.6295714 5.11544717,18.6964286 5.51512728,18.6963571 C6.44547933,18.6963571 7.37338025,18.3357857 8.16372892,17.6212857 C9.19811027,16.6867143 10.483301,16.6867143 11.5176823,17.6212857 C13.1019122,19.0527857 15.2306558,19.0527143 16.8148135,17.6212857 C17.849267,16.6867143 19.1344577,16.6867143 20.1687669,17.6212857 C21.7529968,19.0527857 23.8817404,19.0527143 25.4658981,17.6212857 C26.5002795,16.6866429 27.7854702,16.6867857 28.8198515,17.6212857 C29.9226486,18.6178571 31.3072546,18.9241429 32.5858129,18.5173571 Z M33.7623604,25.1770714 C33.0673899,27.2072857 31.145984,28.5714286 28.9811943,28.5714286 L7.93022173,28.5714286 C5.76543199,28.5714286 3.8440261,27.2072857 3.14927191,25.1775 C2.99968024,24.7396429 3.38126517,24.2857143 3.85411903,24.2857143 L33.057297,24.2857143 C33.5318811,24.2857143 33.9110148,24.7417857 33.7623604,25.1770714 Z M34.748584,22.8571429 L2.16283199,22.8571429 C1.76531465,22.8571429 1.44190827,22.5367143 1.44190827,22.1428571 C1.44190827,21.7485 1.76481001,21.4285714 2.16283199,21.4285714 L34.748584,21.4285714 C35.1461014,21.4285714 35.4695077,21.749 35.4695077,22.1428571 C35.4695077,22.5372143 35.146606,22.8571429 34.748584,22.8571429 Z" id="Shape"></path>
                    </g>
                    <g id="Haltères" transform="translate(58.170790, 91.000000) scale(-1, 1) rotate(-41.000000) translate(-58.170790, -91.000000) translate(39.715084, 76.000000)" stroke="#C6CFD9">
                        <rect id="Rectangle" stroke-width="2" x="26.5148013" y="1" width="4.68244797" height="28" rx="2.34122399"></rect>
                        <rect id="Rectangle-Copy" stroke-width="2" x="32.4439552" y="4.06122449" width="3.46745743" height="21.877551" rx="1.73372872"></rect>
                        <rect id="Rectangle" stroke-width="2" x="5.7141633" y="1" width="4.68244797" height="28" rx="2.34122399"></rect>
                        <rect id="Rectangle-Copy" stroke-width="2" x="1" y="4.06122449" width="3.46745743" height="21.877551" rx="1.73372872"></rect>
                        <rect id="Rectangle" stroke-width="3" x="11.6816207" y="14.9693878" width="13.4023723" height="1"></rect>
                    </g>
                    <g id="beer" transform="translate(18.266560, 302.000000) rotate(-18.000000) translate(-18.266560, -302.000000) translate(4.798883, 287.000000)" fill="#A1B0C1" fill-rule="nonzero">
                        <path d="M23.2641369,9.92111916 L19.5863746,9.92111916 L19.5863746,7.81986656 C19.5860474,7.57260436 19.5134083,7.33042072 19.3769647,7.1215651 C19.7494853,6.61815322 19.950797,6.01451922 19.952842,5.39485602 C19.9292834,3.70512518 18.4980973,2.35383249 16.7562318,2.37668599 C16.340684,2.38216131 15.9302895,2.46722712 15.548689,2.62704294 C14.4659741,1.26940205 12.5357215,0.86010217 10.9678463,1.65576908 C9.88987581,-0.00182402545 7.63086595,-0.497935476 5.92212982,0.547770969 C5.01700438,1.101651 4.40726149,2.01229959 4.25363966,3.03975497 C2.62089644,2.45056311 0.804919505,3.2569426 0.197630643,4.84081729 C0.0719028704,5.16862221 0.00507164729,5.51499561 0,5.86470181 L0,12.0668885 C0.00957068924,13.1600477 0.846310691,14.0799805 1.96321831,14.2252748 L1.96321831,26.9216651 C1.81540433,28.4717356 2.99096309,29.8444535 4.58885919,29.9878434 C4.76685765,30.0037932 4.94600132,30.0037932 5.12399978,29.9878434 L16.4255932,29.9878434 C18.0234893,30.1311539 19.4385606,28.9908593 19.5863746,27.4407888 C19.6028166,27.2681179 19.6028166,27.094336 19.5863746,26.9216651 L19.5863746,26.5788626 L23.2641369,26.5788626 C25.5611023,26.5788626 26.9353551,24.9156354 26.9353551,22.135126 L26.9353551,14.3649351 C26.915723,11.5716499 25.5414702,9.92111916 23.2641369,9.92111916 Z M16.9061726,28.7244732 C16.7468247,28.7474854 16.5848592,28.7474854 16.4255114,28.7244732 L5.12399978,28.7244732 C4.23392568,28.8531828 3.40479315,28.2576428 3.27203051,27.3942089 C3.24830829,27.2396303 3.24830829,27.0825125 3.27203051,26.9279339 L3.27203051,14.0284014 C4.06255308,13.6749656 4.57217183,12.9111191 4.58084271,12.0668091 L4.58084271,10.6067242 C5.66486642,10.9661908 6.8638202,10.7494793 7.74162418,10.0353867 C8.7945636,11.7080567 11.045966,12.2359092 12.7701625,11.2144846 C13.8395438,10.5809347 14.5003304,9.4605576 14.5212714,8.24519564 C14.5212714,8.1690173 14.5212714,8.06744617 14.5212714,7.96587505 C14.5212714,7.86430393 14.5212714,7.83256295 14.5212714,7.769081 L18.2252099,7.769081 C18.2540856,7.769081 18.2775624,7.7917758 18.2775624,7.81986656 L18.2775624,7.81986656 L18.2775624,26.9279339 C18.4102433,27.7913678 17.7963285,28.5957635 16.9061726,28.7244732 Z M18.2252099,6.49944197 L13.8406891,6.49944197 C13.4792933,6.49944197 13.186283,6.78368241 13.186283,7.13426149 C13.1819475,7.17647699 13.1819475,7.21900989 13.186283,7.26122539 C13.186283,7.26122539 13.186283,7.30566276 13.186283,7.32470734 C13.2037883,7.51055075 13.2037883,7.6975051 13.186283,7.88334851 C13.186283,8.01666061 13.186283,8.14362452 13.186283,8.24519564 C13.1605975,9.50007511 12.0911343,10.4972179 10.7975371,10.4723806 C9.69813483,10.4512728 8.7618433,9.69123514 8.54654369,8.64513193 C8.4945184,8.37303242 8.26686688,8.16504967 7.98375444,8.13092812 C7.70874028,8.10545599 7.44689604,8.25027419 7.32934834,8.49277525 C6.88247077,9.39302867 5.76785358,9.77146045 4.83982393,9.33795808 C4.66820593,9.25781212 4.51024865,9.15259078 4.37143276,9.02602364 C4.10983392,8.78407805 3.69559486,8.7936797 3.44626613,9.0474488 C3.32929104,9.16647746 3.26450484,9.32494428 3.26548645,9.48944189 L3.26548645,12.0668091 C3.26548645,12.5926777 2.82597095,13.0190384 2.2838773,13.0190384 C1.74178364,13.0190384 1.30226814,12.5926777 1.30226814,12.0668091 L1.30226814,5.86462246 C1.33359783,4.87287567 2.1877614,4.09355537 3.21010733,4.12394735 C3.7110552,4.13886561 4.18435442,4.35002245 4.52202796,4.70925094 C4.75442393,4.9777796 5.16719058,5.01277402 5.44400436,4.78733374 C5.65766795,4.6133932 5.73415167,4.32716895 5.63451834,4.07443143 C5.56695091,3.86914667 5.53161298,3.65513314 5.52981336,3.43961191 C5.51819765,2.18449438 6.55763994,1.15791187 7.85140081,1.14655071 C8.88634406,1.13759765 9.80480302,1.78844636 10.1106561,2.74765864 C10.2256679,3.08006601 10.5966344,3.25900576 10.9392978,3.14743623 C11.0194625,3.12132928 11.093574,3.08046277 11.1577058,3.02697923 C12.1515033,2.22329772 13.6288251,2.35327702 14.4573032,3.31740916 C14.5748509,3.45421276 14.675384,3.60387146 14.7569394,3.76336987 C14.9194775,4.07649459 15.3129392,4.20258562 15.635725,4.04491232 C15.6670547,4.0295973 15.6970756,4.01190171 15.7254604,3.99190489 C16.0414568,3.76987677 16.4215849,3.64989588 16.8117746,3.64910235 C17.8175967,3.63854848 18.6428028,4.41913842 18.6571998,5.39485602 C18.6526189,5.80106115 18.4995697,6.19250674 18.2252099,6.49944197 Z M25.6134548,22.1413948 C25.6134548,23.3285073 25.305884,25.3154924 23.2510488,25.3154924 L19.5863746,25.3154924 L19.5863746,23.0491867 L21.2616542,23.0491867 C22.6686274,23.0491867 23.5455315,22.0144309 23.5455315,20.3512038 L23.5455315,16.1423504 C23.5455315,14.4791233 22.6686274,13.4443675 21.2616542,13.4443675 L19.5863746,13.4443675 L19.5863746,11.1907582 L23.2641369,11.1907582 C25.3189721,11.1907582 25.6265429,13.1840915 25.6265429,14.3648558 L25.6134548,22.1413948 Z M19.5863746,21.7858959 L19.5929187,14.7203547 L21.2681983,14.7203547 C21.9226044,14.7203547 22.2432634,15.2028175 22.2432634,16.1486986 L22.2432634,20.357552 C22.2432634,21.303433 21.9160603,21.7858959 21.2681983,21.7858959 L19.5863746,21.7858959 Z" id="Shape"></path>
                        <path d="M6.04671238,13.6842105 C5.74313993,13.6842105 5.49701125,13.9527301 5.49701125,14.2839192 L5.49701125,24.1371334 C5.49701125,24.4683225 5.74313993,24.7368421 6.04671238,24.7368421 C6.35028483,24.7368421 6.59641351,24.4683225 6.59641351,24.1371334 L6.59641351,14.2839192 C6.59641351,13.9527301 6.35028483,13.6842105 6.04671238,13.6842105 Z" id="Path"></path>
                        <path d="M9.34491913,13.6842105 C9.04134669,13.6842105 8.79521801,13.9527301 8.79521801,14.2839192 L8.79521801,24.1371334 C8.79521801,24.4683225 9.04134669,24.7368421 9.34491913,24.7368421 C9.64849158,24.7368421 9.89462026,24.4683225 9.89462026,24.1371334 L9.89462026,14.2839192 C9.89462026,13.9527301 9.64849158,13.6842105 9.34491913,13.6842105 Z" id="Path"></path>
                        <path d="M12.0934248,13.6842105 C11.7898523,13.6842105 11.5437236,13.9527301 11.5437236,14.2839192 L11.5437236,24.1371334 C11.5437236,24.4683225 11.7898523,24.7368421 12.0934248,24.7368421 C12.3969972,24.7368421 12.6431259,24.4683225 12.6431259,24.1371334 L12.6431259,14.2839192 C12.6431259,13.9527301 12.3969972,13.6842105 12.0934248,13.6842105 Z" id="Path"></path>
                        <path d="M15.3916315,13.6842105 C15.0880591,13.6842105 14.8419304,13.9527301 14.8419304,14.2839192 L14.8419304,24.1371334 C14.8419304,24.4683225 15.0880591,24.7368421 15.3916315,24.7368421 C15.695204,24.7368421 15.9413326,24.4683225 15.9413326,24.1371334 L15.9413326,14.2839192 C15.9413326,13.9527301 15.695204,13.6842105 15.3916315,13.6842105 Z" id="Path"></path>
                    </g>
                </g>
                <g id="20" transform="translate(0.341875, 58.646628)">
                    <g id="beer" transform="translate(422.999058, 24.006300) rotate(17.000000) translate(-422.999058, -24.006300) translate(413.999058, 14.006300)" fill="#90A1B5" fill-rule="nonzero">
                        <path d="M15.5094246,6.61407944 L13.0575831,6.61407944 L13.0575831,5.21324438 C13.0573649,5.04840291 13.0089389,4.88694714 12.9179764,4.74771006 C13.1663236,4.41210215 13.3005313,4.00967948 13.3018947,3.59657068 C13.2861889,2.47008345 12.3320649,1.56922166 11.1708212,1.58445733 C10.8937893,1.58810754 10.620193,1.64481808 10.3657927,1.75136196 C9.64398272,0.846268035 8.35714766,0.573401447 7.31189751,1.10384605 C6.59325054,-0.00121601697 5.08724397,-0.331956984 3.94808655,0.365180646 C3.34466959,0.734433997 2.93817433,1.34153306 2.83575977,2.02650331 C1.74726429,1.63370874 0.536613003,2.17129507 0.131753762,3.22721152 C0.047935247,3.44574814 0.00338109819,3.67666374 0,3.90980121 L0,8.04459231 C0.00638045949,8.77336511 0.564207127,9.38665367 1.3088122,9.48351654 L1.3088122,17.9477767 C1.21026955,18.9811571 1.99397539,19.8963023 3.05923946,19.9918956 C3.1779051,20.0025288 3.29733421,20.0025288 3.41599985,19.9918956 L10.9503954,19.9918956 C12.0156595,20.0874359 12.9590404,19.3272395 13.0575831,18.2938592 C13.0685444,18.1787452 13.0685444,18.0628907 13.0575831,17.9477767 L13.0575831,17.7192417 L15.5094246,17.7192417 C17.0407349,17.7192417 17.9569034,16.6104236 17.9569034,14.7567506 L17.9569034,9.57662341 C17.9438153,7.71443326 17.0276468,6.61407944 15.5094246,6.61407944 Z M11.2707818,19.1496488 C11.1645498,19.1649903 11.0565728,19.1649903 10.9503409,19.1496488 L3.41599985,19.1496488 C2.82261712,19.2354552 2.2698621,18.8384285 2.18135367,18.2628059 C2.16553886,18.1597536 2.16553886,18.0550083 2.18135367,17.951956 L2.18135367,9.35226761 C2.70836872,9.11664377 3.04811455,8.60741271 3.05389514,8.04453941 L3.05389514,7.07114949 C3.77657761,7.31079385 4.57588013,7.16631951 5.16108279,6.69025778 C5.8630424,7.80537116 7.36397733,8.15727277 8.51344165,7.47632304 C9.22636256,7.05395646 9.66688693,6.3070384 9.6808476,5.49679709 C9.6808476,5.44601153 9.6808476,5.37829745 9.6808476,5.31058337 C9.6808476,5.24286929 9.6808476,5.22170864 9.6808476,5.17938733 L12.15014,5.17938733 C12.1693904,5.17938733 12.1850416,5.1945172 12.1850416,5.21324438 L12.1850416,5.21324438 L12.1850416,17.951956 C12.2734955,18.5275786 11.864219,19.0638423 11.2707818,19.1496488 Z M12.15014,4.33296132 L9.22712603,4.33296132 C8.98619552,4.33296132 8.7908553,4.52245494 8.7908553,4.75617432 C8.78796501,4.78431799 8.78796501,4.81267326 8.7908553,4.84081693 C8.7908553,4.84081693 8.7908553,4.87044184 8.7908553,4.88313823 C8.80252554,5.00703384 8.80252554,5.13167007 8.7908553,5.25556568 C8.7908553,5.34444041 8.7908553,5.42908301 8.7908553,5.49679709 C8.77373167,6.33338341 8.06075623,6.99814524 7.19835805,6.98158703 C6.46542322,6.9675152 5.84122886,6.46082343 5.69769579,5.76342129 C5.66301227,5.58202161 5.51124459,5.44336645 5.32250296,5.42061875 C5.13916018,5.40363733 4.96459736,5.5001828 4.88623223,5.66185017 C4.58831385,6.26201911 3.84523572,6.51430697 3.22654928,6.22530539 C3.11213728,6.17187474 3.00683244,6.10172719 2.91428851,6.01734909 C2.73988928,5.85605204 2.46372991,5.86245313 2.29751076,6.03163253 C2.21952736,6.11098497 2.17633656,6.21662952 2.17699097,6.32629459 L2.17699097,8.04453941 C2.17699097,8.39511849 1.88398063,8.67935892 1.52258486,8.67935892 C1.16118909,8.67935892 0.868178762,8.39511849 0.868178762,8.04453941 L0.868178762,3.90974831 C0.889065223,3.24858378 1.4585076,2.72903691 2.14007155,2.74929823 C2.4740368,2.75924374 2.78956961,2.90001497 3.01468531,3.13950063 C3.16961595,3.31851973 3.44479372,3.34184935 3.62933624,3.19155583 C3.77177864,3.07559546 3.82276778,2.8847793 3.75634556,2.71628762 C3.7113006,2.57943111 3.68774198,2.43675543 3.68654224,2.29307461 C3.67879843,1.45632959 4.37175996,0.77194125 5.2342672,0.764367138 C5.92422937,0.758398434 6.53653535,1.19229757 6.74043738,1.83177243 C6.81711196,2.05337734 7.06442294,2.17267051 7.2928652,2.09829082 C7.34630836,2.08088619 7.39571602,2.05364185 7.43847056,2.01798615 C8.1010022,1.48219848 9.08588338,1.56885135 9.63820213,2.21160611 C9.71656726,2.30280851 9.78358936,2.40258098 9.8379596,2.50891324 C9.94631834,2.71766306 10.2086261,2.80172375 10.4238167,2.69660821 C10.4447031,2.6863982 10.464717,2.67460114 10.4836403,2.66126993 C10.6943045,2.51325118 10.9477233,2.43326392 11.2078497,2.4327349 C11.8783978,2.42569899 12.4285352,2.94609228 12.4381332,3.59657068 C12.4350793,3.8673741 12.3330465,4.12833783 12.15014,4.33296132 Z M17.0756365,14.7609299 C17.0756365,15.5523382 16.8705893,16.8769949 15.5006992,16.8769949 L13.0575831,16.8769949 L13.0575831,15.3661245 L14.1744362,15.3661245 C15.1124182,15.3661245 15.697021,14.6762873 15.697021,13.5674692 L15.697021,10.7615669 C15.697021,9.65274885 15.1124182,8.96291164 14.1744362,8.96291164 L13.0575831,8.96291164 L13.0575831,7.46050546 L15.5094246,7.46050546 C16.8793147,7.46050546 17.084362,8.78939431 17.084362,9.5765705 L17.0756365,14.7609299 Z M13.0575831,14.5239306 L13.0619458,9.81356979 L14.1787989,9.81356979 C14.6150696,9.81356979 14.8288423,10.1352117 14.8288423,10.7657991 L14.8288423,13.5717013 C14.8288423,14.2022887 14.6107069,14.5239306 14.1787989,14.5239306 L13.0575831,14.5239306 Z" id="Shape"></path>
                        <path d="M4.03114159,9.12280702 C3.82875996,9.12280702 3.66467417,9.30182007 3.66467417,9.52261283 L3.66467417,16.0914223 C3.66467417,16.312215 3.82875996,16.4912281 4.03114159,16.4912281 C4.23352322,16.4912281 4.397609,16.312215 4.397609,16.0914223 L4.397609,9.52261283 C4.397609,9.30182007 4.23352322,9.12280702 4.03114159,9.12280702 Z" id="Path"></path>
                        <path d="M6.22994609,9.12280702 C6.02756446,9.12280702 5.86347867,9.30182007 5.86347867,9.52261283 L5.86347867,16.0914223 C5.86347867,16.312215 6.02756446,16.4912281 6.22994609,16.4912281 C6.43232772,16.4912281 6.59641351,16.312215 6.59641351,16.0914223 L6.59641351,9.52261283 C6.59641351,9.30182007 6.43232772,9.12280702 6.22994609,9.12280702 Z" id="Path"></path>
                        <path d="M8.06228317,9.12280702 C7.85990154,9.12280702 7.69581576,9.30182007 7.69581576,9.52261283 L7.69581576,16.0914223 C7.69581576,16.312215 7.85990154,16.4912281 8.06228317,16.4912281 C8.2646648,16.4912281 8.42875059,16.312215 8.42875059,16.0914223 L8.42875059,9.52261283 C8.42875059,9.30182007 8.2646648,9.12280702 8.06228317,9.12280702 Z" id="Path"></path>
                        <path d="M10.2610877,9.12280702 C10.058706,9.12280702 9.89462026,9.30182007 9.89462026,9.52261283 L9.89462026,16.0914223 C9.89462026,16.312215 10.058706,16.4912281 10.2610877,16.4912281 C10.4634693,16.4912281 10.6275551,16.312215 10.6275551,16.0914223 L10.6275551,9.52261283 C10.6275551,9.30182007 10.4634693,9.12280702 10.2610877,9.12280702 Z" id="Path"></path>
                    </g>
                    <g id="hamburger" transform="translate(977.401631, 105.250762) rotate(-38.000000) translate(-977.401631, -105.250762) translate(964.931559, 95.250762)" fill="#90A1B5" fill-rule="nonzero">
                        <path d="M18.3055633,4.63918321 C18.1053727,4.44000016 17.7807614,4.44000016 17.5805195,4.63918321 L16.5552153,5.65958818 C16.3550246,5.85882225 16.3550246,6.18188247 16.5552153,6.38116756 C16.7555084,6.58045265 17.0800685,6.58040163 17.2802591,6.38116756 L18.3055633,5.36076258 C18.505754,5.16152851 18.505754,4.8384683 18.3055633,4.63918321 Z" id="Path"></path>
                        <path d="M7.23213954,4.63918321 C7.03194889,4.44000016 6.70733758,4.44000016 6.50709567,4.63918321 L5.48179147,5.65958818 C5.28160083,5.85882225 5.28160083,6.18188247 5.48179147,6.38116756 C5.68208465,6.58045265 6.00664469,6.58040163 6.20683534,6.38116756 L7.23213954,5.36076258 C7.43233018,5.16152851 7.43233018,4.8384683 7.23213954,4.63918321 Z" id="Path"></path>
                        <path d="M15.8448025,3.00653015 C15.6446118,2.80734709 15.3200005,2.80734709 15.1197586,3.00653015 L14.0944544,4.02693512 C13.8942638,4.22616919 13.8942638,4.54922941 14.0944544,4.7485145 C14.2947476,4.94779959 14.6193076,4.94774857 14.8194983,4.7485145 L15.8448025,3.72810952 C16.0449931,3.52887545 16.0449931,3.20581524 15.8448025,3.00653015 Z" id="Path"></path>
                        <path d="M10.513154,3.00653015 C10.3129633,2.80734709 9.98835204,2.80734709 9.78811013,3.00653015 L8.76280593,4.02693512 C8.56261528,4.22616919 8.56261528,4.54922941 8.76280593,4.7485145 C8.9630991,4.94779959 9.28765915,4.94774857 9.48784979,4.7485145 L10.513154,3.72810952 C10.7133446,3.52887545 10.7133446,3.20581524 10.513154,3.00653015 Z" id="Path"></path>
                        <path d="M12.563788,4.63918321 C12.3635974,4.44000016 12.0389861,4.44000016 11.8387442,4.63918321 L10.81344,5.65958818 C10.6132493,5.85882225 10.6132493,6.18188247 10.81344,6.38116756 C11.0137331,6.58045265 11.3382932,6.58040163 11.5384838,6.38116756 L12.563788,5.36076258 C12.7639787,5.16152851 12.7639787,4.8384683 12.563788,4.63918321 Z" id="Path"></path>
                        <path d="M24.6075701,14.7619048 C24.6075701,13.9741905 23.9607574,13.3333333 23.1657227,13.3333333 L22.6851069,13.3333333 L22.6851069,11.7985714 C22.7049082,11.7815238 22.7250941,11.7651905 22.744559,11.747619 C23.0565268,11.4658571 23.7081457,11.2857143 24.1330101,11.280381 C24.3984061,11.2770952 24.6108864,11.0611905 24.6075701,10.7982381 C24.6042058,10.5373333 24.389707,10.3280476 24.1270504,10.3280476 C24.1250318,10.3280476 24.1229171,10.3280476 24.1208985,10.3280952 C23.7084821,10.3332381 23.160532,10.4417143 22.6851069,10.6644286 L22.6851069,9.41619048 C23.2703047,9.17890476 23.6593632,8.58195238 23.5758321,7.91928571 C23.0088977,3.40457143 19.1134585,-9.09494702e-13 14.5146381,-9.09494702e-13 L10.0929726,-9.09494702e-13 C5.49415215,-9.09494702e-13 1.59871293,3.40457143 1.03177852,7.91909524 C0.948487802,8.57980952 1.33490291,9.178 1.92250381,9.4162381 L1.92250381,10.6434286 C1.44530037,10.4292381 0.896052617,10.3220952 0.474360304,10.3280952 C0.208964253,10.3315238 -0.00337181275,10.5475238 4.05595108e-05,10.8105238 C0.00354905494,11.071381 0.218047892,11.2804286 0.480560248,11.2804286 C0.482674957,11.2804286 0.484837729,11.2804286 0.4870005,11.280381 C0.916767158,11.2738571 1.5838619,11.4517619 1.90923881,11.7458095 C1.91356435,11.7497619 1.91817826,11.7534762 1.92255187,11.757381 L1.92255187,13.3333333 L1.44188799,13.3333333 C0.645315348,13.3333333 4.05595108e-05,13.9725714 4.05595108e-05,14.7619048 C4.05595108e-05,15.4697619 0.522469947,16.0587143 1.20532889,16.1709048 C1.09300898,16.4646667 1.08493463,16.785619 1.18908408,17.0905714 C1.78475931,18.8307619 3.43149327,20 5.28681449,20 L19.3207962,20 C21.1761174,20 22.8228514,18.8307619 23.4186708,17.0902857 C23.5227241,16.785619 23.5146498,16.4648095 23.4023779,16.1710952 C24.0723563,16.0619524 24.6075701,15.4842857 24.6075701,14.7619048 Z M1.98560866,8.03685714 C2.49285059,3.99804762 5.97822839,0.952380952 10.0929726,0.952380952 L14.5146381,0.952380952 C18.6293823,0.952380952 22.1147601,3.99804762 22.622002,8.03709524 C22.6567025,8.31228571 22.4399928,8.55190476 22.1723379,8.56966667 C22.1691658,8.56985714 22.1659937,8.57014286 22.1628217,8.57042857 C22.1546031,8.57114286 22.1463846,8.57142857 22.1381661,8.57142857 L2.4694446,8.57142857 C2.18636189,8.57142857 1.94941829,8.32447619 1.98560866,8.03685714 Z M19.8609122,11.0438095 C18.804759,10.0895714 17.3856447,10.0895714 16.3294914,11.0438095 C15.6398558,11.6668571 14.7831101,11.6668571 14.0935225,11.0438095 C13.0373692,10.0895714 11.6182549,10.0895714 10.5621017,11.0438095 C9.87246607,11.6668571 9.01572032,11.6668571 8.32613276,11.0438095 C7.26997951,10.089619 5.8508652,10.0895238 4.79461583,11.0439048 C4.21013895,11.572381 3.50992977,11.6562381 2.88373543,11.2845238 L2.88373543,9.52380952 L21.7238752,9.52380952 L21.7238752,11.3121429 C21.1106575,11.6501905 20.4284714,11.556619 19.8609122,11.0438095 Z M21.7238752,12.3449048 L21.7238752,13.3333333 L2.88373543,13.3333333 L2.88373543,12.330619 C3.1436044,12.4197143 3.41029811,12.4642857 3.67675152,12.4642381 C4.29698622,12.4642381 4.91558683,12.2238571 5.44248595,11.7475238 C6.13207351,11.1244762 6.98886732,11.1244762 7.67845489,11.7475238 C8.73460813,12.7018571 10.1537705,12.7018095 11.2098757,11.7475238 C11.8995113,11.1244762 12.7563051,11.1244762 13.4458446,11.7475238 C14.5019979,12.7018571 15.9211602,12.7018095 16.9772654,11.7475238 C17.666853,11.1244286 18.5236468,11.1245238 19.2132344,11.7475238 C19.9484324,12.4119048 20.8715031,12.6160952 21.7238752,12.3449048 Z M22.5082402,16.7847143 C22.0449266,18.1381905 20.7639893,19.047619 19.3207962,19.047619 L5.28681449,19.047619 C3.84362133,19.047619 2.56268407,18.1381905 2.09951461,16.785 C1.99978683,16.4930952 2.25417678,16.1904762 2.56941269,16.1904762 L22.038198,16.1904762 C22.3545874,16.1904762 22.6073432,16.4945238 22.5082402,16.7847143 Z M23.1657227,15.2380952 L1.44188799,15.2380952 C1.17687644,15.2380952 0.961272183,15.0244762 0.961272183,14.7619048 C0.961272183,14.499 1.17654,14.2857143 1.44188799,14.2857143 L23.1657227,14.2857143 C23.4307342,14.2857143 23.6463385,14.4993333 23.6463385,14.7619048 C23.6463385,15.0248095 23.4310707,15.2380952 23.1657227,15.2380952 Z" id="Shape"></path>
                    </g>
                    <g id="Ordi" transform="translate(24.972736, 341.353372) rotate(21.000000) translate(-24.972736, -341.353372) translate(9.736576, 331.353372)" stroke="#90A1B5">
                        <path d="M0,17.4463301 C2.62353657,17.4463301 6.79512112,17.4463301 12.5147537,17.4463301 C12.8446301,17.4463301 12.8612771,17.8223421 13.1911535,17.8223421 C14.1613962,17.8223421 15.0859285,17.8443299 16.3319991,17.8223421 C16.5613729,17.8182946 16.8052291,17.4524673 17.0790597,17.4463301 C18.683835,17.4103631 22.8820321,17.4103631 29.6736513,17.4463301 C29.6736513,18.5003703 28.8191828,19.3548387 27.7651426,19.3548387 L1.90850864,19.3548387 C0.854468424,19.3548387 1.29082698e-16,18.5003703 0,17.4463301 L0,17.4463301 L0,17.4463301 Z" id="Rectangle"></path>
                        <rect id="Rectangle" x="1.14507938" y="0.5" width="27.3834925" height="15.7741935" rx="2"></rect>
                    </g>
                    <g id="light-bulb" transform="translate(180.255971, 382.353372) scale(-1, 1) rotate(57.000000) translate(-180.255971, -382.353372) translate(171.942589, 372.353372)" fill="#90A1B5" fill-rule="nonzero">
                        <path d="M12.0513441,5.34955009 C11.030869,4.38441983 9.69041448,3.88697384 8.27212712,3.93799394 C5.55230165,4.04428582 3.33406562,6.30617699 3.32538476,8.98473233 C3.32109348,10.1709497 3.74485007,11.3274053 4.51885446,12.2372638 C5.63445854,13.5552831 6.24847319,15.2176881 6.24847319,16.9226098 C6.24847319,16.9226098 6.13172393,17.704918 6.69817407,17.704918 L10.2611887,17.704918 C10.8406109,17.704918 10.7108895,16.9226098 10.7108895,16.9226098 C10.7108895,15.2559532 11.3335523,13.6063032 12.5140171,12.1522303 C13.244781,11.2466235 13.6339452,10.1581947 13.6339452,9.00173903 C13.6339452,7.61144126 13.0718191,6.31042867 12.0513441,5.34955009 L12.0513441,5.34955009 Z M11.8091974,11.5995125 C10.5249555,13.1811357 9.83743207,14.9838459 9.81148779,16.8205696 L7.14787494,16.8205696 C7.12193066,14.9455809 6.43873126,13.1216122 5.21070195,11.671791 C4.57506707,10.9192445 4.22481927,9.96686928 4.22910376,8.988984 C4.23779141,6.77811293 6.06686323,4.91162755 8.31104354,4.82234237 C9.48286023,4.77982562 10.5898162,5.19223811 11.4286813,5.98730136 C12.2718704,6.78236461 12.7345435,7.85378674 12.7345435,9.00173903 C12.7302194,9.95836593 12.414564,10.8554694 11.8091974,11.5995125 L11.8091974,11.5995125 Z" id="Shape"></path>
                        <path d="M14.1663611,2.09811201 C13.9894883,1.92358015 13.7047662,1.92358015 13.5322074,2.09811201 L12.4364588,3.17935817 C12.259586,3.35389003 12.259586,3.63484375 12.4364588,3.80511874 C12.6133316,3.97539372 12.8980537,3.9796506 13.0706125,3.80511874 L14.1663611,2.72387258 C14.3432339,2.55359759 14.3432339,2.27264387 14.1663611,2.09811201 Z" id="Path"></path>
                        <path d="M10.2088321,18.0327869 L6.75046555,18.0327869 C6.50937749,18.0327869 6.31816973,18.1809584 6.31816973,18.3606557 C6.31816973,18.5435057 6.51353418,18.6885246 6.75046555,18.6885246 L10.2088321,18.6885246 C10.4499202,18.6885246 10.641128,18.5403531 10.641128,18.3606557 C10.641128,18.1809584 10.4457635,18.0327869 10.2088321,18.0327869 Z" id="Path"></path>
                        <path d="M9.49904138,19.3442623 L7.12772106,19.3442623 C6.86169286,19.3442623 6.65070497,19.4924338 6.65070497,19.6721311 C6.65070497,19.8549811 6.86627955,20 7.12772106,20 L9.49904138,20 C9.76506958,20 9.97605746,19.8518285 9.97605746,19.6721311 C9.97605746,19.4924338 9.76048289,19.3442623 9.49904138,19.3442623 Z" id="Path"></path>
                        <path d="M8.31338122,2.29508197 C8.49883357,2.29508197 8.64591647,2.10483708 8.64591647,1.87411455 L8.64591647,0.420967416 C8.64591647,0.186197126 8.49563611,0 8.31338122,0 C8.13112632,0 7.98084597,0.19024489 7.98084597,0.420967416 L7.98084597,1.87411455 C7.98084597,2.10888484 8.12792887,2.29508197 8.31338122,2.29508197 Z" id="Path"></path>
                        <path d="M4.19019632,3.80661596 C4.36721221,3.63194192 4.36721221,3.35075932 4.19019632,3.18034562 L3.09356132,2.09821864 C2.91654543,1.9235446 2.63159303,1.9235446 2.4588946,2.09821864 C2.28619618,2.27289268 2.28187872,2.55407528 2.4588946,2.72448898 L3.55552961,3.80661596 C3.73254549,3.97702965 4.01749789,3.97702965 4.19019632,3.80661596 L4.19019632,3.80661596 Z" id="Path"></path>
                        <path d="M16.1998036,7.86885246 L14.7259745,7.86885246 C14.4878629,7.86885246 14.2990157,8.01702396 14.2990157,8.19672131 C14.2990157,8.37641866 14.4919682,8.52459016 14.7259745,8.52459016 L16.1998036,8.52459016 C16.4379153,8.52459016 16.6267624,8.37641866 16.6267624,8.19672131 C16.6267624,8.01702396 16.4338099,7.86885246 16.1998036,7.86885246 Z" id="Path"></path>
                        <path d="M1.9007879,7.86885246 L0.426958838,7.86885246 C0.188847178,7.86885246 0,8.01702396 0,8.19672131 C0,8.37641866 0.192952552,8.52459016 0.426958838,8.52459016 L1.9007879,8.52459016 C2.13889956,8.52459016 2.32774674,8.37641866 2.32774674,8.19672131 C2.32774674,8.01702396 2.13889956,7.86885246 1.9007879,7.86885246 L1.9007879,7.86885246 Z" id="Path"></path>
                    </g>
                    <g id="Haltères" transform="translate(1168.814945, 50.000000) scale(1, -1) rotate(50.000000) translate(-1168.814945, -50.000000) translate(1156.843676, 40.000000)" stroke="#E7ECF3">
                        <rect id="Rectangle" x="16.9985739" y="0.5" width="3.32105507" height="18.398827" rx="1.66052753"></rect>
                        <rect id="Rectangle-Copy" x="20.8325282" y="2.47947214" width="2.53540869" height="14.4398827" rx="1.26770435"></rect>
                        <rect id="Rectangle" x="3.54830794" y="0.5" width="3.32105507" height="18.398827" rx="1.66052753"></rect>
                        <rect id="Rectangle-Copy" x="0.5" y="2.47947214" width="2.53540869" height="14.4398827" rx="1.26770435"></rect>
                        <rect id="Rectangle" stroke-width="3" x="8.08371663" y="10.2096774" width="7.60622607" height="1"></rect>
                    </g>
                    <g id="coffee-cup" transform="translate(14.622211, 87.353372) scale(-1, 1) rotate(32.000000) translate(-14.622211, -87.353372) translate(3.648548, 77.353372)" fill="#90A1B5" fill-rule="nonzero">
                        <path d="M16.8626982,7.5862069 L4.07167468,7.5862069 C3.31607722,7.5862069 2.70120941,8.21907296 2.70120941,8.99678809 L2.70120941,9.93716086 C2.70120941,13.2924486 4.50200078,16.3355571 7.40006374,17.878733 C7.62392068,17.9972218 7.89981247,17.9078703 8.01587375,17.676535 C8.13099283,17.4461254 8.04418242,17.1621577 7.81942612,17.0426991 C5.22650581,15.662225 3.61483865,12.9398033 3.61483865,9.93711678 L3.61483865,8.99674401 C3.61483865,8.73719707 3.81950907,8.52653558 4.07167468,8.52653558 L16.8626982,8.52653558 C17.1148638,8.52653558 17.3195342,8.73719707 17.3195342,8.99674401 L17.3195342,9.93711678 C17.3195342,12.9397592 15.7078671,15.662181 13.1140474,17.0417294 C12.8892911,17.1611439 12.8024807,17.4451556 12.9175998,17.6755652 C12.9989283,17.8372972 13.1588017,17.9303955 13.3241569,17.9303955 C13.3954211,17.9303955 13.4666853,17.9134685 13.533367,17.8777191 C16.4323721,16.335469 18.2331635,13.2933302 18.2331635,9.9370727 L18.2331635,8.99669993 C18.2331635,8.21907296 17.6182528,7.5862069 16.8626982,7.5862069 Z" id="Path"></path>
                        <path d="M20.8993771,17.2160971 C20.828385,17.0227314 20.6627225,16.8965517 20.4788854,16.8965517 L0.455485903,16.8965517 C0.27164878,16.8965517 0.105986318,17.0227314 0.0349942148,17.2160971 C-0.0359978885,17.4094627 0.00312456264,17.6318162 0.133290973,17.7797126 L1.15358914,18.9400034 C1.75612608,19.6235454 2.55521388,20 3.40622319,20 L17.5263563,20 C18.3773656,20 19.177392,19.6235938 19.7808249,18.9400034 L20.801123,17.7797126 C20.9312468,17.6318162 20.9703692,17.4094627 20.8993771,17.2160971 Z M19.136435,18.2088592 C18.706856,18.6969512 18.1343542,18.9658404 17.5272949,18.9658404 L3.40622319,18.9658404 C2.79916391,18.9658404 2.22666209,18.6969512 1.79708307,18.2088592 L1.5531757,17.9317293 L19.3803424,17.9317293 L19.136435,18.2088592 Z" id="Shape"></path>
                        <path d="M21.0594572,9.9917077 C19.822604,9.18943267 17.8465915,10.0602756 17.6252699,10.1612385 C17.3947803,10.2677598 17.2919531,10.541988 17.397535,10.7754403 C17.5031168,11.0088926 17.7740228,11.1117227 18.0063202,11.0052014 C18.4489205,10.8023203 19.8684867,10.3215198 20.5626672,10.7726611 C20.8757973,10.9755422 21.0291127,11.3692758 21.0291127,11.9732728 C21.0291127,13.8279068 17.3213077,14.9488772 15.8897758,15.2249293 L15.564723,15.2897627 C15.3158975,15.3388762 15.1542751,15.5824899 15.2029555,15.8335727 C15.2461266,16.0540409 15.4380075,16.2068966 15.6528729,16.2068966 C15.6822706,16.2068966 15.7116252,16.2041174 15.7419267,16.197647 L16.0642247,16.1337256 C16.3047862,16.0873912 21.9473264,14.9711107 21.9473264,11.9732728 C21.9473264,11.041331 21.6480558,10.3752364 21.0594572,9.9917077 Z" id="Path"></path>
                        <path d="M14.0048609,3.56760867 C14.6903804,2.61657571 14.6903804,1.12734804 14.0048609,0.176315082 C13.8589746,-0.0258699184 13.5950669,-0.0595674185 13.4121063,0.103303832 C13.2299756,0.265253666 13.2004505,0.559141499 13.3463369,0.761326499 C13.7805967,1.36318667 13.7805967,2.38069321 13.3455068,2.98444009 C12.6591573,3.93547305 12.6591573,5.42470072 13.3455068,6.37573368 C13.4289834,6.49178822 13.5512338,6.55172414 13.6751839,6.55172414 C13.7670792,6.55172414 13.8606741,6.51802664 13.9382615,6.44874493 C14.1203921,6.28679509 14.1499172,5.99194197 14.0040309,5.79072226 C13.568941,5.18881822 13.568941,4.17135555 14.0048609,3.56760867 Z" id="Path"></path>
                        <path d="M11.303029,3.56743226 C11.9893785,2.61634307 11.9893785,1.12702737 11.303029,0.175938182 C11.1580122,-0.0262587715 10.892405,-0.0590367932 10.7102743,0.102922615 C10.5281437,0.264882024 10.4986186,0.55975258 10.6445049,0.760984183 C11.0795948,1.36287993 11.0795948,2.38044663 10.6436749,2.9842292 C9.95815539,3.93531838 9.95815539,5.42463409 10.6436749,6.37572327 C10.7271515,6.49178468 10.8494019,6.55172414 10.9733519,6.55172414 C11.0652473,6.55172414 11.1580122,6.51802465 11.2364296,6.44873884 C11.4185602,6.28677943 11.4480853,5.99287423 11.302199,5.79067727 C10.8679391,5.18873765 10.8679391,4.17121483 11.303029,3.56743226 Z" id="Path"></path>
                        <path d="M8.60244209,3.56811048 C9.28796163,2.61694375 9.28796163,1.12750661 8.60244209,0.176339882 C8.4574253,-0.0258735572 8.19264813,-0.0595757971 8.00968745,0.103318362 C7.82838683,0.264325547 7.79890127,0.559220146 7.94391805,0.760512039 C8.37817792,1.36245686 8.37817792,2.38010653 7.94308803,2.98393832 C7.25673848,3.93510505 7.25673848,5.42454219 7.94308803,6.37570892 C8.02656458,6.49177979 8.14881504,6.55172414 8.27276506,6.55172414 C8.36466041,6.55172414 8.45825533,6.5180219 8.53584267,6.44969587 C8.71797332,6.28772326 8.74749841,5.99282866 8.60161207,5.79158065 C8.16652218,5.18862651 8.16652218,4.17194228 8.60244209,3.56811048 Z" id="Path"></path>
                    </g>
                    <g id="iphone" transform="translate(1240.797054, 12.676188) rotate(8.000000) translate(-1240.797054, -12.676188) translate(1234.312616, 1.176188)" fill="#90A1B5" fill-rule="nonzero">
                        <path d="M10.2327913,0.286559945 C9.85878888,0.286559945 2.50656755,0.286559945 2.25194531,0.286559945 C1.15178569,0.286559945 0.256733817,1.44310682 0.256733817,2.86468495 L0.256733817,19.7084349 C0.256733817,21.1300131 1.15178569,22.2865599 2.25194531,22.2865599 L10.2327913,22.2865599 C11.3329509,22.2865599 12.2280028,21.1300131 12.2280028,19.7084349 L12.2280028,2.86468495 C12.2280028,1.44310682 11.3329509,0.286559945 10.2327913,0.286559945 Z M11.3984026,20.24634 C11.3984026,20.7553001 11.0696081,21.1693724 10.6654678,21.1693724 L1.8702498,21.1693724 C1.46610953,21.1693724 1.13731496,20.7553001 1.13731496,20.24634 L1.13731496,2.15490485 C1.13731496,1.64594478 1.46610953,1.23187245 1.8702498,1.23187245 L3.17593656,1.23187245 L3.32860688,1.80318335 C3.42894566,2.17881139 3.7085603,2.43181457 4.02324587,2.43181457 L8.51247173,2.43181457 C8.8271573,2.43181457 9.10677194,2.17881139 9.20711072,1.80318335 L9.35978104,1.23187245 L10.6654678,1.23187245 C11.0696081,1.23187245 11.3984026,1.64594478 11.3984026,2.15490485 L11.3984026,20.24634 Z" id="Shape"></path>
                    </g>
                    <g id="headphones" transform="translate(651.197071, 81.353372) scale(-1, 1) rotate(41.000000) translate(-651.197071, -81.353372) translate(637.230590, 69.353372)" fill="#90A1B5" fill-rule="nonzero">
                        <path d="M13.4676776,0 C6.07045045,0 0,5.99185714 0,13.3571429 L1.2609938,20.0589008 C1.2609938,21.3586817 1.06194742,22 2.3673652,22 L3.3927641,22 L3.3927641,14.1428571 L2.3673652,14.1428571 C2.08938392,14.1428571 1.82629073,14.1995333 1.57824347,14.2875857 L1.57824347,13.3571429 C1.57824347,6.85813333 6.94048346,1.57142857 13.4676776,1.57142857 C19.9948717,1.57142857 25.3571117,6.85813333 25.3571117,13.3571429 L25.3571117,14.2875857 C25.1090644,14.1995333 24.8459712,14.1428571 24.5679899,14.1428571 L23.5780062,14.1428571 L23.5780062,22 L24.4295848,22 C25.7350026,22 25.5498278,21.3586817 25.5498278,20.0589008 L26.9353551,13.3571429 C26.9353551,5.99185714 20.8649047,0 13.4676776,0 Z" id="Path"></path>
                        <path d="M5.7719881,13 L5.4868316,13 C4.66036512,13 3.99042298,13.7035286 3.99042298,14.5714286 L3.99042298,22.4285714 C3.99042298,23.2964714 4.66036512,24 5.4868316,24 L6.23503591,24 C6.64824421,24 6.98324022,23.6482095 6.98324022,23.2142857 L6.98324022,13.7857143 C6.98324022,13.3517905 6.1851964,13 5.7719881,13 Z" id="Path"></path>
                        <path d="M21.4485235,13 L20.7003192,13 C20.2871109,13 19.9521149,13.3517905 19.9521149,13.7857143 L19.9521149,23.2142857 C19.9521149,23.6482095 20.2871109,24 20.7003192,24 L21.4485235,24 C22.27499,24 22.9449322,23.2964714 22.9449322,22.4285714 L22.9449322,14.5714286 C22.9449322,13.7035286 22.27499,13 21.4485235,13 Z" id="Path"></path>
                    </g>
                </g>
                <g id="50" transform="translate(145.860574, 21.000000)">
                    <g id="headphones" transform="translate(1060.930567, 168.000000) rotate(40.000000) translate(-1060.930567, -168.000000) translate(1032.000000, 143.000000)" fill="#E7ECF3" fill-rule="nonzero">
                        <path d="M28.5546572,0 C12.8707887,0 0,12.609127 0,28.1084656 L2.67360468,42.2114915 C2.67360468,44.9467208 2.25157934,46.2962963 5.01937334,46.2962963 L7.19346119,46.2962963 L7.19346119,29.7619048 L5.01937334,29.7619048 C4.42998737,29.7619048 3.87216768,29.8811728 3.34624889,30.0664683 L3.34624889,28.1084656 C3.34624889,14.4320988 14.7154641,3.30687831 28.5546572,3.30687831 C42.3938503,3.30687831 53.7630656,14.4320988 53.7630656,28.1084656 L53.7630656,30.0664683 C53.2371468,29.8811728 52.6793271,29.7619048 52.0899411,29.7619048 L49.9909418,29.7619048 L49.9909418,46.2962963 L51.7964896,46.2962963 C54.5642836,46.2962963 54.1716693,44.9467208 54.1716693,42.2114915 L57.1093145,28.1084656 C57.1093145,12.609127 44.2385258,0 28.5546572,0 Z" id="Path"></path>
                        <path d="M12.9729556,26.8518519 L12.3586049,26.8518519 C10.5780378,26.8518519 9.13469198,28.3323413 9.13469198,30.1587302 L9.13469198,46.6931217 C9.13469198,48.5195106 10.5780378,50 12.3586049,50 L13.9705613,50 C14.8607912,50 15.5825178,49.2597002 15.5825178,48.3465608 L15.5825178,28.505291 C15.5825178,27.5921517 13.8631854,26.8518519 12.9729556,26.8518519 Z" id="Path"></path>
                        <path d="M44.7507096,26.8518519 L43.1387531,26.8518519 C42.2485233,26.8518519 41.5267967,27.5921517 41.5267967,28.505291 L41.5267967,48.3465608 C41.5267967,49.2597002 42.2485233,50 43.1387531,50 L44.7507096,50 C46.5312767,50 47.9746225,48.5195106 47.9746225,46.6931217 L47.9746225,30.1587302 C47.9746225,28.3323413 46.5312767,26.8518519 44.7507096,26.8518519 Z" id="Path"></path>
                    </g>
                    <g id="beer" transform="translate(908.071856, 407.000000) rotate(40.000000) translate(-908.071856, -407.000000) translate(886.632083, 382.000000)" fill="#E7ECF3" fill-rule="nonzero">
                        <path d="M37.0351757,16.5351986 L31.1803885,16.5351986 L31.1803885,13.0331109 C31.1798676,12.6210073 31.0642303,12.2173679 30.8470198,11.8692752 C31.4400514,11.0302554 31.7605281,10.0241987 31.7637836,8.9914267 C31.7262797,6.17520863 29.4479131,3.92305415 26.674963,3.96114332 C26.0134345,3.97026885 25.36011,4.11204521 24.7526238,4.37840489 C23.0290036,2.11567009 19.9561518,1.43350362 17.4601841,2.75961513 C15.7441168,-0.00304004242 12.1479023,-0.82989246 9.42769204,0.912951615 C7.9867841,1.83608499 7.01610829,3.35383265 6.77155112,5.06625829 C4.17231727,4.08427185 1.28138583,5.42823766 0.314616683,8.06802881 C0.114465258,8.61437036 0.00807377249,9.19165935 0,9.77450302 L0,20.1114808 C0.01523599,21.9334128 1.34727823,23.4666342 3.12533129,23.7087914 L3.12533129,44.8694418 C2.89001988,47.4528927 4.76144221,49.7407558 7.30520143,49.9797389 C7.5885648,50.006322 7.87375128,50.006322 8.15711465,49.9797389 L26.1486051,49.9797389 C28.6923643,50.2185898 30.9450771,48.3180988 31.1803885,45.7346479 C31.2065631,45.4468631 31.2065631,45.1572267 31.1803885,44.8694418 L31.1803885,44.2981043 L37.0351757,44.2981043 C40.6918133,44.2981043 42.8795452,41.5260591 42.8795452,36.8918766 L42.8795452,23.9415585 C42.8482919,19.2860832 40.66056,16.5351986 37.0351757,16.5351986 Z M26.9136601,47.8741219 C26.6599874,47.9124756 26.4021476,47.9124756 26.1484749,47.8741219 L8.15711465,47.8741219 C6.74016758,48.088638 5.420236,47.0960713 5.20888548,45.6570148 C5.17112106,45.3993839 5.17112106,45.1375208 5.20888548,44.8798899 L5.20888548,23.380669 C6.46735221,22.7916094 7.27863612,21.5185318 7.29243967,20.1113485 L7.29243967,17.6778737 C9.01814342,18.2769846 10.9268093,17.9157988 12.324223,16.7256444 C14.0004424,19.5134279 17.5845463,20.3931819 20.3293685,18.6908076 C22.0317625,17.6348911 23.0836969,15.767596 23.1170337,13.7419927 C23.1170337,13.6150288 23.1170337,13.4457436 23.1170337,13.2764584 C23.1170337,13.1071732 23.1170337,13.0542716 23.1170337,12.9484683 L29.0134921,12.9484683 C29.0594605,12.9484683 29.0968343,12.986293 29.0968343,13.0331109 L29.0968343,13.0331109 L29.0968343,44.8798899 C29.3080546,46.3189464 28.3307374,47.6596059 26.9136601,47.8741219 Z M29.0134921,10.8324033 L22.0335856,10.8324033 C21.4582642,10.8324033 20.9918085,11.3061374 20.9918085,11.8904358 C20.9849067,11.960795 20.9849067,12.0316832 20.9918085,12.1020423 C20.9918085,12.1020423 20.9918085,12.1761046 20.9918085,12.2078456 C21.019676,12.5175846 21.019676,12.8291752 20.9918085,13.1389142 C20.9918085,13.361101 20.9918085,13.5727075 20.9918085,13.7419927 C20.9509187,15.8334585 19.2483945,17.4953631 17.1890616,17.4539676 C15.4388761,17.418788 13.9483535,16.1520586 13.6056089,14.4085532 C13.5227876,13.955054 13.1603794,13.6084161 12.7096806,13.5515469 C12.2718737,13.5090933 11.8550327,13.750457 11.6679035,14.1546254 C10.9564999,15.6550478 9.18209309,16.2857674 7.70472295,15.5632635 C7.43151691,15.4296869 7.18005796,15.254318 6.95907099,15.0433727 C6.5426206,14.6401301 5.8831757,14.6561328 5.48625863,15.0790813 C5.30004097,15.2774624 5.19690504,15.5415738 5.1984677,15.8157365 L5.1984677,20.1113485 C5.1984677,20.9877962 4.49878416,21.6983973 3.63580206,21.6983973 C2.77281996,21.6983973 2.07313642,20.9877962 2.07313642,20.1113485 L2.07313642,9.77437076 C2.1230115,8.12145945 3.48279105,6.82259228 5.11030732,6.87324558 C5.90778768,6.89810935 6.66125297,7.25003742 7.19880995,7.84875157 C7.56877104,8.29629933 8.22587194,8.35462337 8.66654365,7.97888957 C9.00668388,7.68898866 9.12844157,7.21194825 8.96983101,6.79071905 C8.86226753,6.44857778 8.80601156,6.09188857 8.80314668,5.73268652 C8.78465513,3.64082397 10.4393878,1.92985312 12.4989811,1.91091785 C14.1465516,1.89599608 15.6086858,2.98074393 16.0955863,4.57943107 C16.2786787,5.13344335 16.8692361,5.43167627 17.4147366,5.24572705 C17.5423543,5.20221547 17.6603355,5.13410462 17.7624297,5.04496538 C19.3444984,3.70549621 21.6963102,3.92212837 23.0152,5.52901526 C23.2023292,5.75702127 23.3623722,6.00645244 23.4922037,6.27228311 C23.7509551,6.79415765 24.3773236,7.00430936 24.8911801,6.74152053 C24.9410552,6.7159955 24.9888467,6.68650284 25.0340338,6.65317482 C25.5370819,6.28312794 26.1422242,6.0831598 26.7633838,6.08183726 C28.3645952,6.06424747 29.6782761,7.36523071 29.7011952,8.9914267 C29.6939028,9.66843526 29.4502571,10.3208446 29.0134921,10.8324033 Z M40.7751555,36.9023247 C40.7751555,38.8808455 40.2855203,42.1924873 37.0143402,42.1924873 L31.1803885,42.1924873 L31.1803885,38.4153112 L33.8473378,38.4153112 C36.0871586,38.4153112 37.4831399,36.6907182 37.4831399,33.918673 L37.4831399,26.9039173 C37.4831399,24.1318721 36.0871586,22.4072791 33.8473378,22.4072791 L31.1803885,22.4072791 L31.1803885,18.6512636 L37.0351757,18.6512636 C40.3063558,18.6512636 40.795991,21.9734858 40.795991,23.9414263 L40.7751555,36.9023247 Z M31.1803885,36.3098265 L31.1908062,24.5339245 L33.8577556,24.5339245 C34.8995327,24.5339245 35.4100035,25.3380292 35.4100035,26.9144977 L35.4100035,33.9292533 C35.4100035,35.5057217 34.8891149,36.3098265 33.8577556,36.3098265 L31.1803885,36.3098265 Z" id="Shape"></path>
                        <path d="M9.62602036,22.8070175 C9.14275038,22.8070175 8.7509276,23.2545502 8.7509276,23.8065321 L8.7509276,40.2285557 C8.7509276,40.7805375 9.14275038,41.2280702 9.62602036,41.2280702 C10.1092903,41.2280702 10.5011131,40.7805375 10.5011131,40.2285557 L10.5011131,23.8065321 C10.5011131,23.2545502 10.1092903,22.8070175 9.62602036,22.8070175 Z" id="Path"></path>
                        <path d="M14.8765769,22.8070175 C14.3933069,22.8070175 14.0014842,23.2545502 14.0014842,23.8065321 L14.0014842,40.2285557 C14.0014842,40.7805375 14.3933069,41.2280702 14.8765769,41.2280702 C15.3598469,41.2280702 15.7516697,40.7805375 15.7516697,40.2285557 L15.7516697,23.8065321 C15.7516697,23.2545502 15.3598469,22.8070175 14.8765769,22.8070175 Z" id="Path"></path>
                        <path d="M19.2520407,22.8070175 C18.7687707,22.8070175 18.376948,23.2545502 18.376948,23.8065321 L18.376948,40.2285557 C18.376948,40.7805375 18.7687707,41.2280702 19.2520407,41.2280702 C19.7353107,41.2280702 20.1271335,40.7805375 20.1271335,40.2285557 L20.1271335,23.8065321 C20.1271335,23.2545502 19.7353107,22.8070175 19.2520407,22.8070175 Z" id="Path"></path>
                        <path d="M24.5025973,22.8070175 C24.0193273,22.8070175 23.6275045,23.2545502 23.6275045,23.8065321 L23.6275045,40.2285557 C23.6275045,40.7805375 24.0193273,41.2280702 24.5025973,41.2280702 C24.9858673,41.2280702 25.37769,40.7805375 25.37769,40.2285557 L25.37769,23.8065321 C25.37769,23.2545502 24.9858673,22.8070175 24.5025973,22.8070175 Z" id="Path"></path>
                    </g>
                    <g id="coffee-cup" transform="translate(900.625341, 130.000000) rotate(-28.000000) translate(-900.625341, -130.000000) translate(872.675180, 105.000000)" fill="#E7ECF3" fill-rule="nonzero">
                        <path d="M42.9496624,18.9655172 L10.3706448,18.9655172 C8.44612144,18.9655172 6.88003963,20.5476824 6.88003963,22.4919702 L6.88003963,24.8429021 C6.88003963,33.2311216 11.4666948,40.8388929 18.8481247,44.6968324 C19.4182933,44.9930545 20.1209957,44.7696757 20.4166063,44.1913374 C20.7098172,43.6153134 20.4887091,42.9053943 19.9162499,42.6067478 C13.312025,39.1555626 9.20707336,32.3495083 9.20707336,24.8427919 L9.20707336,22.49186 C9.20707336,21.8429927 9.72837342,21.316339 10.3706448,21.316339 L42.9496624,21.316339 C43.5919337,21.316339 44.1132338,21.8429927 44.1132338,22.49186 L44.1132338,24.8427919 C44.1132338,32.3493981 40.0082821,39.1554524 33.4017665,42.6043234 C32.8293073,42.9028597 32.6081992,43.612889 32.9014101,44.188913 C33.1085557,44.5932429 33.5157566,44.8259888 33.9369199,44.8259888 C34.1184314,44.8259888 34.2999428,44.7836713 34.4697826,44.6942978 C41.8536124,40.8386725 46.4402675,33.2333256 46.4402675,24.8426817 L46.4402675,22.4917498 C46.4402675,20.5476824 44.8740766,18.9655172 42.9496624,18.9655172 Z" id="Path"></path>
                        <path d="M53.2311721,43.0402426 C53.0503537,42.5568285 52.6284077,42.2413793 52.1601706,42.2413793 L1.16013259,42.2413793 C0.691895404,42.2413793 0.269949478,42.5568285 0.0891310329,43.0402426 C-0.0916874119,43.5236567 0.0079583296,44.0795405 0.339495033,44.4492814 L2.93821685,47.3500085 C4.47289167,49.0588634 6.50818583,50 8.6757252,50 L44.640014,50 C46.8075534,50 48.8452382,49.0589846 50.382195,47.3500085 L52.9809168,44.4492814 C53.3123448,44.0795405 53.4119906,43.5236567 53.2311721,43.0402426 Z M48.7409198,45.5221481 C47.6467727,46.7423779 46.188598,47.414601 44.6424047,47.414601 L8.6757252,47.414601 C7.1295319,47.414601 5.67135719,46.7423779 4.57721001,45.5221481 L3.9559726,44.8293232 L49.3621573,44.8293232 L48.7409198,45.5221481 Z" id="Shape"></path>
                        <path d="M53.6388997,24.9792693 C50.4886074,22.9735817 45.4556603,25.150689 44.8919491,25.4030963 C44.3048871,25.6693995 44.0429839,26.3549701 44.3119033,26.9386008 C44.5808227,27.5222314 45.2708261,27.7793068 45.8624926,27.5130036 C46.9898053,27.0058008 50.6054717,25.8037995 52.3735645,26.9316528 C53.1711138,27.4388556 53.5616115,28.4231895 53.5616115,29.9331819 C53.5616115,34.569767 44.1177508,37.372193 40.4716075,38.0623232 L39.6436911,38.2244066 C39.0099271,38.3471906 38.5982711,38.9562248 38.7222612,39.5839317 C38.8322189,40.1351023 39.320944,40.5172414 39.8682108,40.5172414 C39.9430872,40.5172414 40.017854,40.5102934 40.0950327,40.4941176 L40.9159329,40.334314 C41.5286481,40.2184781 55.900322,37.4277768 55.900322,29.9331819 C55.900322,27.6033274 55.1380732,25.9380911 53.6388997,24.9792693 Z" id="Path"></path>
                        <path d="M35.670688,8.91902168 C37.4167213,6.54143928 37.4167213,2.81837011 35.670688,0.440787705 C35.2991123,-0.064674796 34.6269338,-0.148918546 34.160929,0.25825958 C33.6970382,0.663134165 33.6218372,1.39785375 33.9934129,1.90331625 C35.0994823,3.40796667 35.0994823,5.95173303 33.9912988,7.46110022 C32.2431514,9.83868262 32.2431514,13.5617518 33.9912988,15.9393342 C34.2039154,16.2294705 34.51529,16.3793103 34.8309934,16.3793103 C35.0650529,16.3793103 35.3034412,16.2950666 35.5010578,16.1218623 C35.9649486,15.7169877 36.0401496,14.9798549 35.668574,14.4768057 C34.5603905,12.9720455 34.5603905,10.4283889 35.670688,8.91902168 Z" id="Path"></path>
                        <path d="M28.7890628,8.91858065 C30.5372102,6.54085769 30.5372102,2.81756841 28.7890628,0.439845454 C28.4197019,-0.0656469286 27.7431945,-0.147591983 27.2793038,0.257306538 C26.815413,0.662205059 26.740212,1.39938145 27.1117877,1.90246046 C28.2199712,3.40719983 28.2199712,5.95111657 27.1096736,7.46057299 C25.3636403,9.83829595 25.3636403,13.5615852 27.1096736,15.9393082 C27.3222902,16.2294617 27.6336648,16.3793103 27.9493682,16.3793103 C28.1834277,16.3793103 28.4197019,16.2950616 28.6194326,16.1218471 C29.0833234,15.7169486 29.1585245,14.9821856 28.7869488,14.4766932 C27.6808794,12.9718441 27.6808794,10.4280371 28.7890628,8.91858065 Z" id="Path"></path>
                        <path d="M21.9106088,8.9202762 C23.6566421,6.54235938 23.6566421,2.81876653 21.9106088,0.440849705 C21.5412478,-0.064683893 20.8668546,-0.148939493 20.4008497,0.258295906 C19.939073,0.660813868 19.8639727,1.39805036 20.2333336,1.9012801 C21.339403,3.40614216 21.339403,5.95026632 20.2312195,7.45984581 C18.4830721,9.83776264 18.4830721,13.5613555 20.2312195,15.9392723 C20.4438361,16.2294495 20.7552107,16.3793103 21.0709141,16.3793103 C21.3049736,16.3793103 21.5433619,16.2950547 21.7409786,16.1242397 C22.2048693,15.7193081 22.2800704,14.9820717 21.9084947,14.4789516 C20.8003112,12.9715663 20.8003112,10.4298557 21.9106088,8.9202762 Z" id="Path"></path>
                    </g>
                    <g id="hamburger" transform="translate(353.864783, 91.410797) rotate(63.000000) translate(-353.864783, -91.410797) translate(322.864783, 66.410797)" fill="#E7ECF3" fill-rule="nonzero">
                        <path d="M45.4357611,11.597958 C44.9388732,11.1000004 44.1331639,11.1000004 43.6361487,11.597958 L41.0912679,14.1489705 C40.5943799,14.6470556 40.5943799,15.4547062 41.0912679,15.9529189 C41.5884103,16.4511316 42.3939924,16.4510041 42.8908803,15.9529189 L45.4357611,13.4019065 C45.9326491,12.9038213 45.9326491,12.0961707 45.4357611,11.597958 Z" id="Path"></path>
                        <path d="M17.9507049,11.597958 C17.4538169,11.1000004 16.6481076,11.1000004 16.1510924,11.597958 L13.6062116,14.1489705 C13.1093236,14.6470556 13.1093236,15.4547062 13.6062116,15.9529189 C14.1033541,16.4511316 14.9089361,16.4510041 15.4058241,15.9529189 L17.9507049,13.4019065 C18.4475928,12.9038213 18.4475928,12.0961707 17.9507049,11.597958 Z" id="Path"></path>
                        <path d="M39.3279709,7.51632536 C38.8310829,7.01836774 38.0253736,7.01836774 37.5283584,7.51632536 L34.9834776,10.0673378 C34.4865896,10.565423 34.4865896,11.3730735 34.9834776,11.8712862 C35.4806201,12.369499 36.2862021,12.3693714 36.78309,11.8712862 L39.3279709,9.32027381 C39.8248588,8.82218863 39.8248588,8.01453809 39.3279709,7.51632536 Z" id="Path"></path>
                        <path d="M26.0944252,7.51632536 C25.5975373,7.01836774 24.791828,7.01836774 24.2948128,7.51632536 L21.749932,10.0673378 C21.253044,10.565423 21.253044,11.3730735 21.749932,11.8712862 C22.2470744,12.369499 23.0526565,12.3693714 23.5495444,11.8712862 L26.0944252,9.32027381 C26.5913132,8.82218863 26.5913132,8.01453809 26.0944252,7.51632536 Z" id="Path"></path>
                        <path d="M31.1842505,11.597958 C30.6873625,11.1000004 29.8816532,11.1000004 29.384638,11.597958 L26.8397572,14.1489705 C26.3428692,14.6470556 26.3428692,15.4547062 26.8397572,15.9529189 C27.3368997,16.4511316 28.1424817,16.4510041 28.6393697,15.9529189 L31.1842505,13.4019065 C31.6811385,12.9038213 31.6811385,12.0961707 31.1842505,11.597958 Z" id="Path"></path>
                        <path d="M61.0778078,36.9047619 C61.0778078,34.9354762 59.4723707,33.3333333 57.4990359,33.3333333 L56.3061119,33.3333333 L56.3061119,29.4964286 C56.3552604,29.4538095 56.4053632,29.4129762 56.4536766,29.3690476 C57.2280035,28.6646429 58.8453699,28.2142857 59.8999147,28.2009524 C60.5586473,28.1927381 61.086039,27.6529762 61.0778078,26.9955952 C61.0694573,26.3433333 60.5370553,25.820119 59.8851224,25.820119 C59.8801121,25.820119 59.8748632,25.820119 59.869853,25.8202381 C58.8462049,25.8330952 57.4861523,26.1042857 56.3061119,26.6610714 L56.3061119,23.5404762 C57.7586161,22.9472619 58.7242881,21.454881 58.5169579,19.7982143 C57.1097848,8.51142857 47.4410167,0 36.0264045,0 L25.051504,0 C13.6368917,0 3.96812366,8.51142857 2.56095055,19.7977381 C2.35421683,21.4495238 3.3133277,22.945 4.77179654,23.5405952 L4.77179654,26.6085714 C3.58734233,26.0730952 2.22406882,25.8052381 1.17739733,25.8202381 C0.51866472,25.8288095 -0.00836908846,26.3688095 0.000100671703,27.0263095 C0.00880901666,27.6784524 0.541210983,28.2010714 1.19278605,28.2010714 C1.19803492,28.2010714 1.20340308,28.2010714 1.20877123,28.2009524 C2.27548385,28.1846429 3.93126231,28.6294048 4.73887184,29.3645238 C4.74960815,29.3744048 4.76106022,29.3836905 4.77191583,29.3934524 L4.77191583,33.3333333 L3.57887257,33.3333333 C1.60172039,33.3333333 0.000100671703,34.9314286 0.000100671703,36.9047619 C0.000100671703,38.6744048 1.29680902,40.1467857 2.9917154,40.4272619 C2.71292906,41.1616667 2.69288794,41.9640476 2.95139457,42.7264286 C4.42990453,47.0769048 8.51721992,50 13.1222643,50 L47.9556441,50 C52.5606885,50 56.6480039,47.0769048 58.1268718,42.7257143 C58.3851398,41.9640476 58.3650987,41.1620238 58.0864316,40.4277381 C59.7493676,40.154881 61.0778078,38.7107143 61.0778078,36.9047619 Z M4.92842746,20.0921429 C6.18743941,9.99511905 14.8384047,2.38095238 25.051504,2.38095238 L36.0264045,2.38095238 C46.2395037,2.38095238 54.890469,9.99511905 56.149481,20.0927381 C56.2356101,20.7807143 55.6977207,21.3797619 55.0333813,21.4241667 C55.025508,21.4246429 55.0176347,21.4253571 55.0097614,21.4260714 C54.9893624,21.4278571 54.9689634,21.4285714 54.9485644,21.4285714 L6.12934401,21.4285714 C5.4267118,21.4285714 4.83860028,20.8111905 4.92842746,20.0921429 Z M49.2962521,27.6095238 C46.6748017,25.2239286 43.1524551,25.2239286 40.5310047,27.6095238 C38.8192781,29.1671429 36.6927718,29.1671429 34.9811645,27.6095238 C32.3597141,25.2239286 28.8373675,25.2239286 26.2159171,27.6095238 C24.5041905,29.1671429 22.3776842,29.1671429 20.6660769,27.6095238 C18.0446265,25.2240476 14.5222799,25.2238095 11.9005909,27.6097619 C10.449876,28.9309524 8.71190511,29.1405952 7.15764447,28.2113095 L7.15764447,23.8095238 L53.920264,23.8095238 L53.920264,28.2803571 C52.3982123,29.1254762 50.704976,28.8915476 49.2962521,27.6095238 Z M53.920264,30.8622619 L53.920264,33.3333333 L7.15764447,33.3333333 L7.15764447,30.8265476 C7.80265846,31.0492857 8.46461197,31.1607143 9.12596902,31.1605952 C10.6654374,31.1605952 12.2008498,30.5596429 13.5086524,29.3688095 C15.2202597,27.8111905 17.3468852,27.8111905 19.0584926,29.3688095 C21.679943,31.7546429 25.2024089,31.7545238 27.82374,29.3688095 C29.5354666,27.8111905 31.6620921,27.8111905 33.3735802,29.3688095 C35.9950306,31.7546429 39.5174965,31.7545238 42.1388276,29.3688095 C43.8504349,27.8110714 45.9770604,27.8113095 47.6886678,29.3688095 C49.5134835,31.0297619 51.8046133,31.5402381 53.920264,30.8622619 Z M55.8671159,41.9617857 C54.7171372,45.3454762 51.5377562,47.6190476 47.9556441,47.6190476 L13.1222643,47.6190476 C9.54015222,47.6190476 6.36077126,45.3454762 5.21115044,41.9625 C4.96361871,41.2327381 5.59503337,40.4761905 6.3774722,40.4761905 L54.7004362,40.4761905 C55.4857381,40.4761905 56.1130968,41.2363095 55.8671159,41.9617857 Z M57.4990359,38.0952381 L3.57887257,38.0952381 C2.9210943,38.0952381 2.38594861,37.5611905 2.38594861,36.9047619 C2.38594861,36.2475 2.92025925,35.7142857 3.57887257,35.7142857 L57.4990359,35.7142857 C58.1568142,35.7142857 58.6919598,36.2483333 58.6919598,36.9047619 C58.6919598,37.5620238 58.1576492,38.0952381 57.4990359,38.0952381 Z" id="Shape"></path>
                    </g>
                    <g id="light-bulb" transform="translate(129.074026, 29.000000) rotate(11.000000) translate(-129.074026, -29.000000) translate(108.631285, 4.000000)" fill="#E7ECF3" fill-rule="nonzero">
                        <path d="M29.6344526,13.3738752 C27.1250877,10.9610496 23.8288881,9.7174346 20.3412962,9.84498485 C13.6532008,10.1107146 8.19852203,15.7654425 8.17717565,22.4618308 C8.16662332,25.4273742 9.20864772,28.3185133 11.1119372,30.5931595 C13.8552259,33.8882077 15.365098,38.0442202 15.365098,42.3065245 C15.365098,42.3065245 15.0780097,44.2622951 16.4709198,44.2622951 L25.2324311,44.2622951 C26.65724,44.2622951 26.338253,42.3065245 26.338253,42.3065245 C26.338253,38.1398829 27.8693909,34.015758 30.7721731,30.3805758 C32.5691336,28.1165588 33.5260947,25.3954867 33.5260947,22.5043476 C33.5260947,19.0286031 32.1438175,15.7760717 29.6344526,13.3738752 L29.6344526,13.3738752 Z M29.0390101,28.9987813 C25.8810382,32.9528392 24.1904067,37.4596149 24.1266093,42.051424 L17.5767417,42.051424 C17.5129442,37.3639522 15.8329457,32.8040306 12.8132015,29.1794775 C11.2501649,27.2981113 10.3888999,24.9171732 10.3994355,22.47246 C10.4207986,16.9452823 14.9185161,12.2790689 20.4369923,12.0558559 C23.3185088,11.949564 26.0405317,12.9805953 28.1033147,14.9682534 C30.1767306,16.9559115 31.3144511,19.6344669 31.3144511,22.5043476 C31.3038182,24.8959148 30.5276164,27.1386735 29.0390101,28.9987813 L29.0390101,28.9987813 Z" id="Shape"></path>
                        <path d="M34.8353142,5.24528002 C34.400381,4.80895037 33.7002448,4.80895037 33.2759198,5.24528002 L30.5814561,7.94839541 C30.146523,8.38472506 30.146523,9.08710938 30.5814561,9.51279684 C31.0163892,9.9384843 31.7165254,9.94912649 32.1408504,9.51279684 L34.8353142,6.80968145 C35.2702473,6.38399399 35.2702473,5.68160967 34.8353142,5.24528002 Z" id="Path"></path>
                        <path d="M25.1036856,45.0819672 L16.5995054,45.0819672 C16.006666,45.0819672 15.5364829,45.452396 15.5364829,45.9016393 C15.5364829,46.3587642 16.0168873,46.7213115 16.5995054,46.7213115 L25.1036856,46.7213115 C25.6965251,46.7213115 26.1667081,46.3508827 26.1667081,45.9016393 C26.1667081,45.452396 25.6863037,45.0819672 25.1036856,45.0819672 Z" id="Path"></path>
                        <path d="M23.3582985,48.3606557 L17.5271829,48.3606557 C16.8730152,48.3606557 16.3541926,48.7310845 16.3541926,49.1803279 C16.3541926,49.6374527 16.884294,50 17.5271829,50 L23.3582985,50 C24.0124662,50 24.5312888,49.6295712 24.5312888,49.1803279 C24.5312888,48.7310845 24.0011874,48.3606557 23.3582985,48.3606557 Z" id="Path"></path>
                        <path d="M20.4427407,5.73770492 C20.8987711,5.73770492 21.2604503,5.26209269 21.2604503,4.68528638 L21.2604503,1.05241854 C21.2604503,0.465492815 20.8909085,0 20.4427407,0 C19.9945729,0 19.6250311,0.475612224 19.6250311,1.05241854 L19.6250311,4.68528638 C19.6250311,5.2722121 19.9867103,5.73770492 20.4427407,5.73770492 Z" id="Path"></path>
                        <path d="M10.3037614,9.51653989 C10.7390464,9.07985479 10.7390464,8.37689829 10.3037614,7.95086405 L7.60711799,5.24554661 C7.17183303,4.80886151 6.4711304,4.80886151 6.04646214,5.24554661 C5.62179388,5.68223171 5.61117718,6.38518821 6.04646214,6.81122245 L8.74310559,9.51653989 C9.17839055,9.94257413 9.87909318,9.94257413 10.3037614,9.51653989 L10.3037614,9.51653989 Z" id="Path"></path>
                        <path d="M39.8355826,19.6721311 L36.2114128,19.6721311 C35.6258923,19.6721311 35.161514,20.0425599 35.161514,20.4918033 C35.161514,20.9410467 35.6359875,21.3114754 36.2114128,21.3114754 L39.8355826,21.3114754 C40.4211031,21.3114754 40.8854814,20.9410467 40.8854814,20.4918033 C40.8854814,20.0425599 40.4110079,19.6721311 39.8355826,19.6721311 Z" id="Path"></path>
                        <path d="M4.67406861,19.6721311 L1.04989878,19.6721311 C0.464378307,19.6721311 0,20.0425599 0,20.4918033 C0,20.9410467 0.474473488,21.3114754 1.04989878,21.3114754 L4.67406861,21.3114754 C5.25958909,21.3114754 5.7239674,20.9410467 5.7239674,20.4918033 C5.7239674,20.0425599 5.25958909,19.6721311 4.67406861,19.6721311 L4.67406861,19.6721311 Z" id="Path"></path>
                    </g>
                    <g id="Haltères" transform="translate(39.652833, 328.000000) rotate(-30.000000) translate(-39.652833, -328.000000) translate(8.727055, 303.000000)" stroke="#E7ECF3" stroke-width="3">
                        <rect id="Rectangle" x="43.3994413" y="1.5" width="7.97366321" height="47" rx="3.9868316"></rect>
                        <rect id="Rectangle-Copy" x="54.3731045" y="6.60204082" width="5.97845172" height="36.7959184" rx="2.98922586"></rect>
                        <rect id="Rectangle" x="10.4784517" y="1.5" width="7.97366321" height="47" rx="3.9868316"></rect>
                        <rect id="Rectangle-Copy" x="1.5" y="6.60204082" width="5.97845172" height="36.7959184" rx="2.98922586"></rect>
                        <rect id="Rectangle" x="19.4569034" y="23.9489796" width="23.9353551" height="3.12244898"></rect>
                    </g>
                    <g id="iphone" transform="translate(634.499636, 130.000000) rotate(-28.000000) translate(-634.499636, -130.000000) translate(620.403033, 105.000000)" fill="#E7ECF3" fill-rule="nonzero">
                        <path d="M23.4943382,0 C22.6135355,0 5.29852147,0 4.69886765,0 C2.10791203,0 0,2.62851563 0,5.859375 L0,44.140625 C0,47.3714844 2.10791203,50 4.69886765,50 L23.4943382,50 C26.0852938,50 28.1932059,47.3714844 28.1932059,44.140625 L28.1932059,5.859375 C28.1932059,2.62851563 26.0852938,0 23.4943382,0 Z M26.2394374,45.3631366 C26.2394374,46.519864 25.4651024,47.4609375 24.5133228,47.4609375 L3.79994706,47.4609375 C2.84816744,47.4609375 2.07383241,46.519864 2.07383241,45.3631366 L2.07383241,4.24623843 C2.07383241,3.089511 2.84816744,2.1484375 3.79994706,2.1484375 L6.87493399,2.1484375 L7.23448367,3.44687138 C7.47078877,4.30057147 8.1293015,4.8755787 8.87040883,4.8755787 L19.442861,4.8755787 C20.1839684,4.8755787 20.8424811,4.30057147 21.0787862,3.44687138 L21.4383359,2.1484375 L24.5133228,2.1484375 C25.4651024,2.1484375 26.2394374,3.089511 26.2394374,4.24623843 L26.2394374,45.3631366 Z" id="Shape"></path>
                    </g>
                </g>
                <g id="40" transform="translate(50.286751, 55.000000)">
                    <g id="light-bulb" transform="translate(1082.498827, 276.009557) rotate(14.000000) translate(-1082.498827, -276.009557) translate(1065.998827, 256.009557)" fill="#C6CFD9" fill-rule="nonzero">
                        <path d="M23.8616612,10.6991002 C21.8411206,8.76883966 19.1870207,7.77394768 16.3788117,7.87598788 C10.9935573,8.08857164 6.60144994,12.612354 6.58426183,17.9694647 C6.5757651,20.3418994 7.41480315,22.6548107 8.94733183,24.4745276 C11.1562279,27.1105662 12.3719769,30.4353762 12.3719769,33.8452196 C12.3719769,33.8452196 12.1408134,35.4098361 13.2623847,35.4098361 L20.3171536,35.4098361 C21.4644097,35.4098361 21.2075613,33.8452196 21.2075613,33.8452196 C21.2075613,30.5119063 22.4404335,27.2126064 24.7777538,24.3044606 C26.2246663,22.493247 26.9952115,20.3163893 26.9952115,18.0034781 C26.9952115,15.2228825 25.8822018,12.6208573 23.8616612,10.6991002 L23.8616612,10.6991002 Z M23.3822109,23.1990251 C20.8394119,26.3622714 19.4781155,29.9676919 19.4267458,33.6411392 L14.1527924,33.6411392 C14.1014227,29.8911617 12.7486879,26.2432245 10.3171899,23.343582 C9.05863279,21.838489 8.36514216,19.9337386 8.37362544,17.977968 C8.390827,13.5562259 12.0123892,9.8232551 16.4558662,9.64468474 C18.7760633,9.55965124 20.9678361,10.3844762 22.628789,11.9746027 C24.2983035,13.5647292 25.214396,15.7075735 25.214396,18.0034781 C25.2058344,19.9167319 24.5808367,21.7109388 23.3822109,23.1990251 L23.3822109,23.1990251 Z" id="Shape"></path>
                        <path d="M28.049395,4.19622402 C27.6991868,3.8471603 27.1354371,3.8471603 26.7937706,4.19622402 L24.6241884,6.35871633 C24.2739803,6.70778005 24.2739803,7.2696875 24.6241884,7.61023747 C24.9743966,7.95078744 25.5381463,7.95930119 25.8798128,7.61023747 L28.049395,5.44774516 C28.3996031,5.10719519 28.3996031,4.54528774 28.049395,4.19622402 Z" id="Path"></path>
                        <path d="M20.2134876,36.0655738 L13.3659218,36.0655738 C12.8885674,36.0655738 12.5099761,36.3619168 12.5099761,36.7213115 C12.5099761,37.0870113 12.8967977,37.3770492 13.3659218,37.3770492 L20.2134876,37.3770492 C20.690842,37.3770492 21.0694334,37.0807062 21.0694334,36.7213115 C21.0694334,36.3619168 20.6826117,36.0655738 20.2134876,36.0655738 Z" id="Path"></path>
                        <path d="M18.8081019,38.6885246 L14.1128877,38.6885246 C13.5861519,38.6885246 13.1683958,38.9848676 13.1683958,39.3442623 C13.1683958,39.7099622 13.5952335,40 14.1128877,40 L18.8081019,40 C19.3348378,40 19.7525938,39.703657 19.7525938,39.3442623 C19.7525938,38.9848676 19.3257561,38.6885246 18.8081019,38.6885246 Z" id="Path"></path>
                        <path d="M16.4604948,4.59016393 C16.8276905,4.59016393 17.1189146,4.20967416 17.1189146,3.7482291 L17.1189146,0.841934831 C17.1189146,0.372394252 16.8213595,0 16.4604948,0 C16.0996301,0 15.802075,0.380489779 15.802075,0.841934831 L15.802075,3.7482291 C15.802075,4.21776968 16.0932992,4.59016393 16.4604948,4.59016393 Z" id="Path"></path>
                        <path d="M8.29658871,7.61323191 C8.64708017,7.26388383 8.64708017,6.70151863 8.29658871,6.36069124 L6.12525141,4.19643729 C5.77475996,3.84708921 5.2105542,3.84708921 4.86861132,4.19643729 C4.52666843,4.54578537 4.51811986,5.10815057 4.86861132,5.44897796 L7.03994862,7.61323191 C7.39044007,7.95405931 7.95464583,7.95405931 8.29658871,7.61323191 L8.29658871,7.61323191 Z" id="Path"></path>
                        <path d="M32.0756111,15.7377049 L29.1574296,15.7377049 C28.6859685,15.7377049 28.3120511,16.0340479 28.3120511,16.3934426 C28.3120511,16.7528373 28.6940971,17.0491803 29.1574296,17.0491803 L32.0756111,17.0491803 C32.5470722,17.0491803 32.9209896,16.7528373 32.9209896,16.3934426 C32.9209896,16.0340479 32.5389436,15.7377049 32.0756111,15.7377049 Z" id="Path"></path>
                        <path d="M3.76356005,15.7377049 L0.845378499,15.7377049 C0.373917413,15.7377049 0,16.0340479 0,16.3934426 C0,16.7528373 0.382046052,17.0491803 0.845378499,17.0491803 L3.76356005,17.0491803 C4.23502113,17.0491803 4.60893855,16.7528373 4.60893855,16.3934426 C4.60893855,16.0340479 4.23502113,15.7377049 3.76356005,15.7377049 L3.76356005,15.7377049 Z" id="Path"></path>
                    </g>
                    <g id="Ordi" transform="translate(35.815888, 157.000000) rotate(11.000000) translate(-35.815888, -157.000000) translate(3.815888, 137.000000)" stroke="#C6CFD9">
                        <path d="M0,37.0418116 C5.65843209,37.0418116 14.6556872,37.0418116 26.9917654,37.0418116 C27.7032414,37.0418116 27.7391456,37.6246302 28.4506216,37.6246302 C30.5432368,37.6246302 32.537264,37.6587113 35.2247836,37.6246302 C35.7194959,37.6183566 36.2454438,37.0513243 36.8360406,37.0418116 C40.2972127,36.9860628 49.3518658,36.9860628 64,37.0418116 C64,38.6755739 62.6755739,40 61.0418116,40 L2.95818839,40 C1.32442606,40 2.00078182e-16,38.6755739 0,37.0418116 L0,37.0418116 L0,37.0418116 Z" id="Rectangle"></path>
                        <rect id="Rectangle" stroke-width="2" x="3" y="1" width="59" height="33" rx="2"></rect>
                    </g>
                    <g id="beer" transform="translate(945.924980, 26.000000) scale(-1, 1) rotate(-29.000000) translate(-945.924980, -26.000000) translate(928.466879, 6.000000)" fill="#C6CFD9" fill-rule="nonzero">
                        <path d="M30.1572145,13.2281589 L25.3897449,13.2281589 L25.3897449,10.4264888 C25.3893207,10.0968058 25.295159,9.77389429 25.1182875,9.49542013 C25.6011847,8.8242043 25.8621443,8.01935896 25.8647952,7.19314136 C25.8342563,4.9401669 23.979015,3.13844332 21.7210413,3.16891465 C21.1823681,3.17621508 20.6503753,3.28963616 20.1557079,3.50272391 C18.7521886,1.69253607 16.2500093,1.14680289 14.2175785,2.20769211 C12.8202094,-0.00243203393 9.89186327,-0.663913968 7.67683495,0.730361292 C6.50352419,1.46886799 5.71311675,2.68306612 5.51397734,4.05300663 C3.39745834,3.26741748 1.04341417,4.34259013 0.25618787,6.45442305 C0.0932074246,6.89149628 0.0065743576,7.35332748 0,7.81960241 L0,16.0891846 C0.012406449,17.5467302 1.09706941,18.7733073 2.54491262,18.9670331 L2.54491262,35.8955535 C2.35330191,37.9623142 3.87717437,39.7926047 5.94852117,39.9837911 C6.17925991,40.0050576 6.41148319,40.0050576 6.64222193,39.9837911 L21.2924356,39.9837911 C23.3637824,40.1748718 25.1981342,38.6544791 25.3897449,36.5877183 C25.4110585,36.3574905 25.4110585,36.1257813 25.3897449,35.8955535 L25.3897449,35.4384834 L30.1572145,35.4384834 C33.1347623,35.4384834 34.9162011,33.2208472 34.9162011,29.5135013 L34.9162011,19.1532468 C34.890752,15.4288665 33.1093132,13.2281589 30.1572145,13.2281589 Z M21.915409,38.2992976 C21.7088469,38.3299805 21.4988916,38.3299805 21.2923295,38.2992976 L6.64222193,38.2992976 C5.48842217,38.4709104 4.41362075,37.676857 4.24152103,36.5256118 C4.21077,36.3195071 4.21077,36.1100167 4.24152103,35.9039119 L4.24152103,18.7045352 C5.26627251,18.2332875 5.92688941,17.2148254 5.93812944,16.0890788 L5.93812944,14.142299 C7.34334536,14.6215877 8.8975447,14.332639 10.0354388,13.3805156 C11.4003602,15.6107423 14.3188448,16.3145455 16.5539143,14.9526461 C17.9401494,14.1079129 18.7967246,12.6140768 18.8238703,10.9935942 C18.8238703,10.8920231 18.8238703,10.7565949 18.8238703,10.6211667 C18.8238703,10.4857386 18.8238703,10.4434173 18.8238703,10.3587747 L23.6252721,10.3587747 C23.6627036,10.3587747 23.6931365,10.3890344 23.6931365,10.4264888 L23.6931365,10.4264888 L23.6931365,35.9039119 C23.8651302,37.0551571 23.0693148,38.1276847 21.915409,38.2992976 Z M23.6252721,8.66592263 L17.941634,8.66592263 C17.473158,8.66592263 17.0933298,9.04490988 17.0933298,9.51234865 C17.0877097,9.56863598 17.0877097,9.62534652 17.0933298,9.68163385 C17.0933298,9.68163385 17.0933298,9.74088367 17.0933298,9.76627646 C17.1160219,10.0140677 17.1160219,10.2633401 17.0933298,10.5111314 C17.0933298,10.6888808 17.0933298,10.858166 17.0933298,10.9935942 C17.0600338,12.6667668 15.6736927,13.9962905 13.9968073,13.9631741 C12.5716563,13.9350304 11.357945,12.9216469 11.0788529,11.5268426 C11.0114127,11.1640432 10.7163089,10.8867329 10.3493113,10.8412375 C9.99281147,10.8072747 9.65338375,11.0003656 9.50100711,11.3237003 C8.92172137,12.5240382 7.47684723,13.0286139 6.27384583,12.4506108 C6.05137805,12.3437495 5.84661863,12.2034544 5.6666721,12.0346982 C5.32756249,11.7121041 4.79058593,11.7249063 4.46738202,12.0632651 C4.31574765,12.2219699 4.23176553,12.433259 4.23303799,12.6525892 L4.23303799,16.0890788 C4.23303799,16.790237 3.66329568,17.3587178 2.96058168,17.3587178 C2.25786768,17.3587178 1.68812537,16.790237 1.68812537,16.0890788 L1.68812537,7.81949661 C1.72873793,6.49716756 2.835987,5.45807382 4.16125024,5.49859647 C4.81062711,5.51848748 5.42416313,5.80002993 5.8618881,6.27900126 C6.16314213,6.63703946 6.69821001,6.6836987 7.05704269,6.38311166 C7.33401401,6.15119093 7.43315957,5.7695586 7.30400525,5.43257524 C7.21641784,5.15886222 7.17060941,4.87351085 7.16827658,4.58614922 C7.15321918,2.91265918 8.50064437,1.5438825 10.1777418,1.52873428 C11.5193349,1.51679687 12.7099298,2.38459514 13.106406,3.66354486 C13.2554955,4.10675468 13.7363779,4.34534102 14.1805712,4.19658164 C14.2844885,4.16177237 14.3805589,4.1072837 14.4636927,4.03597231 C15.7519487,2.96439697 17.6669955,3.13770269 18.7409486,4.42321221 C18.8933252,4.60561702 19.023646,4.80516195 19.1293659,5.01782649 C19.3400634,5.43532612 19.8501063,5.60344749 20.2685324,5.39321643 C20.309145,5.3727964 20.3480609,5.34920227 20.3848561,5.32253986 C20.794481,5.02650236 21.2872397,4.86652784 21.7930411,4.86546981 C23.0968847,4.85139797 24.1665963,5.89218457 24.1852589,7.19314136 C24.1793208,7.73474821 23.9809237,8.25667565 23.6252721,8.66592263 Z M33.2026266,29.5218597 C33.2026266,31.1046764 32.8039236,33.7539898 30.1402484,33.7539898 L25.3897449,33.7539898 L25.3897449,30.7322489 L27.5614037,30.7322489 C29.3852577,30.7322489 30.5219853,29.3525745 30.5219853,27.1349384 L30.5219853,21.5231339 C30.5219853,19.3054977 29.3852577,17.9258233 27.5614037,17.9258233 L25.3897449,17.9258233 L25.3897449,14.9210109 L30.1572145,14.9210109 C32.8208897,14.9210109 33.2195927,17.5787886 33.2195927,19.153141 L33.2026266,29.5218597 Z M25.3897449,29.0478612 L25.3982279,19.6271396 L27.5698867,19.6271396 C28.4181909,19.6271396 28.83386,20.2704234 28.83386,21.5315981 L28.83386,27.1434026 C28.83386,28.4045774 28.4097079,29.0478612 27.5698867,29.0478612 L25.3897449,29.0478612 Z" id="Shape"></path>
                        <path d="M7.83833086,18.245614 C7.44481102,18.245614 7.12575533,18.6036401 7.12575533,19.0452257 L7.12575533,32.1828445 C7.12575533,32.62443 7.44481102,32.9824561 7.83833086,32.9824561 C8.2318507,32.9824561 8.5509064,32.62443 8.5509064,32.1828445 L8.5509064,19.0452257 C8.5509064,18.6036401 8.2318507,18.245614 7.83833086,18.245614 Z" id="Path"></path>
                        <path d="M12.1137841,18.245614 C11.7202642,18.245614 11.4012085,18.6036401 11.4012085,19.0452257 L11.4012085,32.1828445 C11.4012085,32.62443 11.7202642,32.9824561 12.1137841,32.9824561 C12.5073039,32.9824561 12.8263596,32.62443 12.8263596,32.1828445 L12.8263596,19.0452257 C12.8263596,18.6036401 12.5073039,18.245614 12.1137841,18.245614 Z" id="Path"></path>
                        <path d="M15.6766617,18.245614 C15.2831419,18.245614 14.9640862,18.6036401 14.9640862,19.0452257 L14.9640862,32.1828445 C14.9640862,32.62443 15.2831419,32.9824561 15.6766617,32.9824561 C16.0701816,32.9824561 16.3892373,32.62443 16.3892373,32.1828445 L16.3892373,19.0452257 C16.3892373,18.6036401 16.0701816,18.245614 15.6766617,18.245614 Z" id="Path"></path>
                        <path d="M19.9521149,18.245614 C19.5585951,18.245614 19.2395394,18.6036401 19.2395394,19.0452257 L19.2395394,32.1828445 C19.2395394,32.62443 19.5585951,32.9824561 19.9521149,32.9824561 C20.3456348,32.9824561 20.6646905,32.62443 20.6646905,32.1828445 L20.6646905,19.0452257 C20.6646905,18.6036401 20.3456348,18.245614 19.9521149,18.245614 Z" id="Path"></path>
                    </g>
                </g>
            </g>
        </g>
    </g>
</svg>